<svg width="128" height="32" viewBox="0 0 128 32" fill="none" xmlns="http://www.w3.org/2000/svg">
<path fill-rule="evenodd" clip-rule="evenodd" d="M22.9242 0.148438H33.3451L23.7985 13.4112L22.7174 12.6331L30.7451 1.48048H23.5916L19.4273 7.05168L18.3604 6.25418L22.9242 0.148438Z" fill="white"/>
<path fill-rule="evenodd" clip-rule="evenodd" d="M22.9242 32H33.3451L23.7985 18.7372L22.7174 19.5154L30.7451 30.668H23.5916L19.4273 25.0968L18.3604 25.8943L22.9242 32Z" fill="white"/>
<path d="M11.2979 0.148438H0.135742L11.2979 15.9428L0.135742 31.9605H11.2979L22.3484 15.9428L11.2979 0.148438Z" fill="#31F8A3"/>
<path d="M49.608 28H45.352L53.8 4.608H57.992L66.44 28H62.12L60.232 22.592H51.496L49.608 28ZM55.368 11.584L52.712 19.136H59.048L56.36 11.584C56.168 10.976 55.944 10.272 55.88 9.792C55.784 10.24 55.592 10.944 55.368 11.584ZM70.7493 9.024C69.4053 9.024 68.3493 7.968 68.3493 6.656C68.3493 5.344 69.4053 4.32 70.7493 4.32C72.0293 4.32 73.0853 5.344 73.0853 6.656C73.0853 7.968 72.0293 9.024 70.7493 9.024ZM68.7973 28V12.192H72.7013V28H68.7973ZM88.6708 28H75.9028V24.8L83.7748 15.456H75.9028V12.192H88.6708V15.424L80.6708 24.736H88.6708V28ZM90.7443 20.064C90.7443 15.136 94.2963 11.744 99.1923 11.744C104.088 11.744 107.64 15.136 107.64 20.064C107.64 24.992 104.088 28.384 99.1923 28.384C94.2963 28.384 90.7443 24.992 90.7443 20.064ZM94.6483 20.064C94.6483 22.944 96.5043 24.896 99.1923 24.896C101.88 24.896 103.736 22.944 103.736 20.064C103.736 17.184 101.88 15.232 99.1923 15.232C96.5043 15.232 94.6483 17.184 94.6483 20.064ZM112.768 28H108.32L113.76 20.256L108.32 12.192H112.864L116.352 17.568L119.712 12.192H124.096L118.72 20.192L123.936 28H119.456L116.096 22.784L112.768 28Z" fill="white"/>
</svg>
