<?xml version="1.0" standalone="no"?>
<!DOCTYPE svg PUBLIC "-//W3C//DTD SVG 1.1//EN" "http://www.w3.org/Graphics/SVG/1.1/DTD/svg11.dtd" >
<svg xmlns="http://www.w3.org/2000/svg">
<metadata>Generated by IcoMoon</metadata>
<defs>
<font id="icomoon" horiz-adv-x="1024">
<font-face units-per-em="1024" ascent="960" descent="-64" />
<missing-glyph horiz-adv-x="1024" />
<glyph unicode="&#x20;" horiz-adv-x="512" d="" />
<glyph unicode="&#xe900;" glyph-name="house-line" d="M960 128h-64v288l9.36-9.36c5.797-5.787 13.801-9.366 22.64-9.366 17.699 0 32.046 14.348 32.046 32.046 0 8.859-3.595 16.879-9.406 22.68v0l-393.4 393.28c-11.58 11.573-27.574 18.73-45.24 18.73s-33.66-7.157-45.24-18.731l-393.4-393.28c-5.786-5.791-9.364-13.787-9.364-22.62 0-17.675 14.329-32.004 32.004-32.004 8.843 0 16.847 3.586 22.64 9.383v0l9.36 9.24v-288h-64c-17.673 0-32-14.327-32-32s14.327-32 32-32v0h896c17.673 0 32 14.327 32 32s-14.327 32-32 32v0zM192 480l320 320 320-320v-352h-192v224c0 17.673-14.327 32-32 32v0h-192c-17.673 0-32-14.327-32-32v0-224h-192zM576 128h-128v192h128z" />
<glyph unicode="&#xe901;" glyph-name="notebook" d="M736 512c0-17.673-14.327-32-32-32v0h-256c-17.673 0-32 14.327-32 32s14.327 32 32 32v0h256c17.673 0 32-14.327 32-32v0zM704 416h-256c-17.673 0-32-14.327-32-32s14.327-32 32-32v0h256c17.673 0 32 14.327 32 32s-14.327 32-32 32v0zM896 768v-640c0-35.346-28.654-64-64-64v0h-640c-35.346 0-64 28.654-64 64v0 640c0 35.346 28.654 64 64 64v0h640c35.346 0 64-28.654 64-64v0zM192 128h96v640h-96zM832 128v640h-480v-640h480z" />
<glyph unicode="&#xe902;" glyph-name="ArrowUp" d="M833.958 478.050c-4.459-4.476-9.758-8.026-15.595-10.449-5.833-2.423-12.087-3.669-18.406-3.669-6.315 0-12.574 1.246-18.406 3.669s-11.132 5.973-15.595 10.449l-205.956 205.959v-588c0-12.732-5.060-24.939-14.059-33.941-9.003-9.003-21.214-14.059-33.941-14.059-12.732 0-24.943 5.056-33.941 14.059-9.003 9.003-14.059 21.21-14.059 33.941v588l-206.042-205.959c-9.018-9.020-21.248-14.084-34-14.084s-24.983 5.065-34 14.084c-9.018 9.015-14.083 21.248-14.083 33.997 0 12.753 5.066 24.984 14.083 34.002l287.998 288c4.463 4.475 9.762 8.026 15.595 10.448s12.092 3.67 18.406 3.67c6.319 0 12.574-1.247 18.406-3.67 5.837-2.423 11.136-5.973 15.595-10.448l288-288c4.476-4.46 8.026-9.758 10.449-15.591 2.423-5.837 3.669-12.092 3.669-18.411 0-6.315-1.246-12.57-3.669-18.406-2.423-5.833-5.973-11.132-10.449-15.59z" />
<glyph unicode="&#xe903;" glyph-name="ArrowsOut" d="M864 768v-192c0-8.487-3.371-16.626-9.374-22.627-5.999-6.001-14.14-9.373-22.626-9.373s-16.627 3.372-22.626 9.373c-6.003 6.001-9.374 14.141-9.374 22.627v114.76l-169.361-169.399c-6.003-6.007-14.148-9.378-22.639-9.378s-16.636 3.371-22.639 9.378c-6.007 6.003-9.378 14.147-9.378 22.639s3.371 16.635 9.378 22.64l169.399 169.36h-114.761c-8.486 0-16.627 3.372-22.626 9.373-6.003 6.001-9.374 14.141-9.374 22.627s3.371 16.626 9.374 22.627c5.999 6.001 14.14 9.373 22.626 9.373h192c8.486 0 16.627-3.372 22.626-9.373 6.003-6.001 9.374-14.141 9.374-22.627zM393.36 374.639l-169.36-169.399v114.761c0 8.486-3.372 16.627-9.373 22.626-6.001 6.003-14.141 9.374-22.627 9.374s-16.626-3.371-22.627-9.374c-6.001-5.999-9.373-14.14-9.373-22.626v-192c0-8.486 3.372-16.627 9.373-22.626 6.001-6.003 14.141-9.374 22.627-9.374h192c8.487 0 16.626 3.371 22.627 9.374 6.001 5.999 9.373 14.14 9.373 22.626s-3.372 16.627-9.373 22.626c-6.001 6.003-14.141 9.374-22.627 9.374h-114.76l169.399 169.361c6.007 6.003 9.378 14.148 9.378 22.639s-3.371 16.636-9.378 22.639c-6.003 6.007-14.147 9.378-22.639 9.378s-16.635-3.371-22.64-9.378zM832 352c-8.486 0-16.627-3.371-22.626-9.374-6.003-5.999-9.374-14.14-9.374-22.626v-114.761l-169.361 169.399c-6.003 6.007-14.148 9.378-22.639 9.378s-16.636-3.371-22.639-9.378c-6.007-6.003-9.378-14.148-9.378-22.639s3.371-16.636 9.378-22.639l169.399-169.361h-114.761c-8.486 0-16.627-3.371-22.626-9.374-6.003-5.999-9.374-14.14-9.374-22.626s3.371-16.627 9.374-22.626c5.999-6.003 14.14-9.374 22.626-9.374h192c8.486 0 16.627 3.371 22.626 9.374 6.003 5.999 9.374 14.14 9.374 22.626v192c0 8.486-3.371 16.627-9.374 22.626-5.999 6.003-14.14 9.374-22.626 9.374zM269.24 736h114.76c8.487 0 16.626 3.372 22.627 9.373s9.373 14.141 9.373 22.627c0 8.487-3.372 16.626-9.373 22.627s-14.141 9.373-22.627 9.373h-192c-8.487 0-16.626-3.372-22.627-9.373s-9.373-14.141-9.373-22.627v-192c0-8.487 3.372-16.626 9.373-22.627s14.141-9.373 22.627-9.373c8.487 0 16.626 3.372 22.627 9.373s9.373 14.141 9.373 22.627v114.76l169.36-169.399c6.005-6.007 14.149-9.378 22.64-9.378s16.636 3.371 22.639 9.378c6.007 6.003 9.378 14.147 9.378 22.639s-3.371 16.635-9.378 22.64l-169.399 169.36z" />
<glyph unicode="&#xe904;" glyph-name="BellSimple" d="M664.009 64c0-6.366-2.53-12.471-7.031-16.969-4.501-4.501-10.607-7.031-16.969-7.031h-256.002c-6.365 0-12.469 2.53-16.97 7.031-4.501 4.497-7.030 10.603-7.030 16.969s2.529 12.471 7.030 16.969c4.501 4.501 10.605 7.031 16.97 7.031h256.002c6.362 0 12.467-2.53 16.969-7.031 4.501-4.497 7.031-10.603 7.031-16.969zM880.448 196.002c-4.855-8.546-11.895-15.646-20.403-20.565-8.508-4.924-18.172-7.488-27.998-7.437h-640.040c-9.843 0.021-19.508 2.637-28.018 7.582s-15.568 12.049-20.46 20.591c-4.892 8.542-7.445 18.223-7.404 28.066s2.678 19.499 7.642 28.002c22.6 38.959 56.24 148.8 56.24 291.759 0 82.748 32.872 162.106 91.383 220.617s137.871 91.383 220.619 91.383c82.748 0 162.103-32.871 220.617-91.383 58.509-58.511 91.383-137.87 91.383-220.617 0-142.921 33.677-252.8 56.32-291.759 5.018-8.516 7.671-18.219 7.693-28.105s-2.594-19.597-7.573-28.134zM838.805 228.002c-30.276 51.998-62.797 173.278-62.797 315.998 0 70.017-27.814 137.167-77.325 186.676s-116.659 77.324-186.675 77.324c-70.020 0-137.168-27.814-186.678-77.324s-77.324-116.659-77.324-186.676c0-142.758-32.56-264-62.84-315.998-0.702-1.22-1.072-2.598-1.072-4.002s0.37-2.782 1.072-4.002c0.659-1.225 1.641-2.244 2.84-2.948 1.199-0.708 2.569-1.071 3.96-1.050h640.041c1.391-0.021 2.761 0.341 3.959 1.050 1.199 0.704 2.18 1.724 2.837 2.948 0.704 1.22 1.075 2.598 1.075 4.002s-0.371 2.782-1.075 4.002z" />
<glyph unicode="&#xe905;" glyph-name="CaretDown" d="M865.981 542.077l-320-320.002c-4.46-4.475-9.759-8.023-15.59-10.445-5.837-2.422-12.088-3.671-18.408-3.671-6.318 0-12.573 1.249-18.407 3.671s-11.133 5.97-15.592 10.445l-320 320.002c-9.017 9.017-14.083 21.247-14.083 34s5.066 24.983 14.083 34c9.017 9.017 21.247 14.083 34 14.083s24.983-5.066 34-14.083l286.042-286.042 286.039 286.082c9.016 9.017 21.248 14.084 33.997 14.084 12.754 0 24.986-5.066 34.002-14.084s14.085-21.247 14.085-34c0-12.752-5.069-24.983-14.085-34l-0.082-0.040z" />
<glyph unicode="&#xe906;" glyph-name="CaretLeft" d="M673.966 161.915c9.021-9.016 14.085-21.248 14.085-33.997 0-12.754-5.064-24.986-14.085-34.002-9.016-9.016-21.248-14.085-33.997-14.085-12.754 0-24.986 5.069-34.002 14.085l-319.999 320c-4.475 4.46-8.026 9.759-10.448 15.596-2.422 5.832-3.67 12.088-3.67 18.406 0 6.316 1.247 12.572 3.67 18.406s5.974 11.133 10.448 15.593l319.999 320c9.016 9.017 21.248 14.083 34.002 14.083 12.749 0 24.98-5.066 33.997-14.083 9.021-9.017 14.085-21.247 14.085-34s-5.064-24.983-14.085-34l-285.958-285.958 285.958-286.044z" />
<glyph unicode="&#xe907;" glyph-name="chat" d="M464 480c0 9.493 2.816 18.773 8.090 26.667s12.77 14.046 21.542 17.681c8.768 3.631 18.419 4.582 27.733 2.731 9.31-1.852 17.865-6.426 24.576-13.137s11.285-15.266 13.137-24.576c1.852-9.314 0.9-18.965-2.731-27.733-3.635-8.772-9.788-16.269-17.681-21.542s-17.173-8.090-26.667-8.090c-12.732 0-24.939 5.056-33.941 14.059s-14.059 21.21-14.059 33.941zM688 432c9.493 0 18.773 2.816 26.667 8.090s14.046 12.77 17.681 21.542c3.631 8.768 4.582 18.419 2.731 27.733-1.852 9.31-6.426 17.865-13.137 24.576s-15.266 11.285-24.576 13.137c-9.314 1.852-18.965 0.9-27.733-2.731-8.772-3.635-16.269-9.788-21.542-17.681s-8.090-17.173-8.090-26.667c0-12.732 5.056-24.939 14.059-33.941s21.21-14.059 33.941-14.059zM928 736v-512c0-16.973-6.741-33.254-18.743-45.257s-28.284-18.743-45.257-18.743h-237.879l-59.362-97.161c-5.713-9.438-13.769-17.237-23.386-22.643s-20.467-8.235-31.501-8.209c-11.034 0.026-21.871 2.897-31.462 8.346-9.596 5.449-17.617 13.286-23.292 22.746l-59.238 96.922h-237.88c-16.974 0-33.253 6.741-45.255 18.743s-18.745 28.284-18.745 45.257v512c0 16.974 6.743 33.253 18.745 45.255s28.281 18.745 45.255 18.745h704c16.973 0 33.254-6.743 45.257-18.745s18.743-28.281 18.743-45.255zM864 736h-704v-512h237.88c11.018-0.030 21.844-2.889 31.441-8.303s17.638-13.201 23.36-22.618l59.319-97.079 59.281 97.28c5.747 9.387 13.807 17.143 23.407 22.519 9.604 5.38 20.425 8.205 31.433 8.201h237.879v512zM336 432c9.493 0 18.774 2.816 26.668 8.090s14.046 12.77 17.679 21.542c3.633 8.768 4.584 18.419 2.732 27.733-1.852 9.31-6.423 17.865-13.136 24.576s-15.266 11.285-24.577 13.137c-9.311 1.852-18.962 0.9-27.733-2.731-8.771-3.635-16.268-9.788-21.542-17.681s-8.090-17.173-8.090-26.667c0-12.732 5.057-24.939 14.059-33.941s21.211-14.059 33.941-14.059z" />
<glyph unicode="&#xe908;" glyph-name="Faders" d="M544 480v-384c0-8.486-3.371-16.627-9.374-22.626-5.999-6.003-14.14-9.374-22.626-9.374s-16.627 3.371-22.626 9.374c-6.003 5.999-9.374 14.14-9.374 22.626v384c0 8.486 3.371 16.627 9.374 22.626 5.999 6.003 14.14 9.374 22.626 9.374s16.627-3.371 22.626-9.374c6.003-5.999 9.374-14.14 9.374-22.626zM800 192c-8.486 0-16.627-3.371-22.626-9.374-6.003-5.999-9.374-14.14-9.374-22.626v-64c0-8.486 3.371-16.627 9.374-22.626 5.999-6.003 14.14-9.374 22.626-9.374s16.627 3.371 22.626 9.374c6.003 5.999 9.374 14.14 9.374 22.626v64c0 8.486-3.371 16.627-9.374 22.626-5.999 6.003-14.14 9.374-22.626 9.374zM896 320h-64v480c0 8.487-3.371 16.626-9.374 22.627-5.999 6.001-14.14 9.373-22.626 9.373s-16.627-3.372-22.626-9.373c-6.003-6.001-9.374-14.141-9.374-22.627v-480h-64c-8.486 0-16.627-3.371-22.626-9.374-6.003-5.999-9.374-14.14-9.374-22.626s3.371-16.627 9.374-22.626c5.999-6.003 14.14-9.374 22.626-9.374h192c8.486 0 16.627 3.371 22.626 9.374 6.003 5.999 9.374 14.14 9.374 22.626s-3.371 16.627-9.374 22.626c-5.999 6.003-14.14 9.374-22.626 9.374zM224 320c-8.487 0-16.626-3.371-22.627-9.374-6.001-5.999-9.373-14.14-9.373-22.626v-192c0-8.486 3.372-16.627 9.373-22.626 6.001-6.003 14.141-9.374 22.627-9.374s16.626 3.371 22.627 9.374c6.001 5.999 9.373 14.14 9.373 22.626v192c0 8.486-3.372 16.627-9.373 22.626-6.001 6.003-14.141 9.374-22.627 9.374zM320 448h-64v352c0 8.487-3.372 16.626-9.373 22.627s-14.141 9.373-22.627 9.373c-8.487 0-16.626-3.372-22.627-9.373s-9.373-14.141-9.373-22.627v-352h-64c-8.487 0-16.626-3.371-22.627-9.374-6.001-5.999-9.373-14.14-9.373-22.626s3.372-16.627 9.373-22.626c6.001-6.003 14.141-9.374 22.627-9.374h192c8.487 0 16.626 3.371 22.627 9.374 6.001 5.999 9.373 14.14 9.373 22.626s-3.372 16.627-9.373 22.626c-6.001 6.003-14.141 9.374-22.627 9.374zM608 640h-64v160c0 8.487-3.371 16.626-9.374 22.627-5.999 6.001-14.14 9.373-22.626 9.373s-16.627-3.372-22.626-9.373c-6.003-6.001-9.374-14.141-9.374-22.627v-160h-64c-8.487 0-16.626-3.372-22.627-9.373s-9.373-14.141-9.373-22.627c0-8.487 3.372-16.626 9.373-22.627s14.141-9.373 22.627-9.373h192c8.486 0 16.627 3.372 22.626 9.373 6.003 6.001 9.374 14.141 9.374 22.627s-3.371 16.626-9.374 22.627c-5.999 6.001-14.14 9.373-22.626 9.373z" />
<glyph unicode="&#xe909;" glyph-name="CheckCircle" d="M512 864c-82.278 0-162.706-24.398-231.117-70.109s-121.731-110.681-153.216-186.695c-31.486-76.013-39.724-159.657-23.673-240.352s55.671-154.82 113.85-213.001c58.179-58.18 132.303-97.801 213-113.852 80.695-16.051 164.339-7.812 240.354 23.676 76.011 31.484 140.983 84.804 186.692 153.216 45.713 68.412 70.11 148.838 70.11 231.117-0.115 110.294-43.981 216.038-121.971 294.028s-183.735 121.856-294.029 121.972zM694.639 521.361l-224-224c-2.97-2.978-6.498-5.338-10.385-6.946-3.883-1.613-8.047-2.441-12.254-2.441s-8.371 0.828-12.254 2.441c-3.883 1.609-7.415 3.968-10.386 6.946l-96 96c-6.004 6.003-9.378 14.148-9.378 22.639s3.373 16.636 9.378 22.639c6.004 6.007 14.148 9.378 22.64 9.378s16.636-3.371 22.64-9.378l73.36-73.399 201.361 201.401c2.974 2.973 6.502 5.331 10.385 6.941 3.887 1.609 8.051 2.437 12.254 2.437 4.207 0 8.367-0.828 12.254-2.437 3.883-1.609 7.411-3.968 10.385-6.941s5.333-6.503 6.942-10.388c1.609-3.884 2.436-8.048 2.436-12.253s-0.828-8.368-2.436-12.254c-1.609-3.883-3.968-7.411-6.942-10.385z" />
<glyph unicode="&#xe90a;" glyph-name="CloudArrowUp" d="M713.374 297.36l-73.36 73.4v-242.76c0-8.488-3.372-16.626-9.372-22.628-6.002-6-14.143-9.372-22.628-9.372-8.488 0-16.626 3.372-22.628 9.372-6.002 6.002-9.372 14.141-9.372 22.628v242.76l-73.36-73.4c-2.974-2.974-6.502-5.332-10.387-6.94-3.887-1.61-8.050-2.439-12.253-2.439-4.205 0-8.369 0.829-12.253 2.439-3.884 1.608-7.415 3.966-10.387 6.94-2.974 2.972-5.332 6.502-6.942 10.387-1.608 3.884-2.437 8.048-2.437 12.253s0.829 8.369 2.437 12.253c1.61 3.884 3.968 7.415 6.942 10.387l128 128c2.972 2.977 6.5 5.336 10.384 6.947 3.887 1.61 8.050 2.439 12.255 2.439s8.369-0.829 12.253-2.439c3.884-1.61 7.415-3.97 10.387-6.947l128-128c2.972-2.972 5.332-6.502 6.94-10.387 1.61-3.884 2.437-8.048 2.437-12.253s-0.826-8.369-2.437-12.253c-1.608-3.884-3.968-7.415-6.94-10.387-2.974-2.974-6.502-5.332-10.387-6.94-3.887-1.61-8.050-2.439-12.253-2.439-4.205 0-8.369 0.829-12.253 2.439-3.884 1.608-7.415 3.966-10.387 6.94zM640.014 800c-65.378-0.049-129.452-18.289-185.055-52.677s-100.541-83.571-129.785-142.043c-34.818 5.118-70.319 3-104.283-6.221-33.964-9.218-65.662-25.342-93.115-47.362s-50.070-49.464-66.44-80.619c-16.37-31.153-26.141-65.347-28.702-100.447s2.142-70.351 13.817-103.552c11.674-33.199 30.069-63.635 54.034-89.407s52.988-46.327 85.253-60.379c32.266-14.052 67.083-21.299 102.276-21.292h160c8.485 0 16.626 3.372 22.626 9.372 6.002 6.002 9.374 14.141 9.374 22.628s-3.372 16.626-9.374 22.628c-6 6-14.141 9.372-22.626 9.372h-160c-50.923 0-99.758 20.229-135.765 56.236-36.007 36.005-56.236 84.843-56.236 135.764s20.229 99.759 56.236 135.764c36.007 36.008 84.842 56.236 135.765 56.236 4.399 0 8.799 0 13.158-0.479-8.746-31.085-13.175-63.227-13.158-95.521 0-8.488 3.37-16.626 9.372-22.628 6.002-6 14.141-9.372 22.628-9.372 8.485 0 16.626 3.372 22.626 9.372 6.002 6.002 9.374 14.141 9.374 22.628 0.007 51.921 14.052 102.875 40.646 147.47 26.594 44.593 64.749 81.168 110.427 105.854s97.18 36.564 149.055 34.377c51.877-2.187 102.195-18.356 145.634-46.798s78.38-68.098 101.129-114.772c22.747-46.673 32.451-98.63 28.090-150.367s-22.628-101.334-52.866-143.542c-30.241-42.207-71.329-75.453-118.914-96.223-6.758-2.928-12.297-8.099-15.686-14.636-3.389-6.54-4.417-14.047-2.914-21.257 1.506-7.21 5.45-13.68 11.169-18.318 5.72-4.641 12.865-7.163 20.231-7.147 4.41 0.002 8.769 0.931 12.8 2.721 74.133 32.337 134.868 89.218 171.992 161.075 37.122 71.857 48.368 154.305 31.844 233.479s-59.809 150.242-122.575 201.251c-62.764 51.009-141.182 78.848-222.061 78.834z" />
<glyph unicode="&#xe90b;" glyph-name="Copy" d="M864 832h-512c-8.487 0-16.626-3.372-22.627-9.373s-9.373-14.141-9.373-22.627v-160h-160c-8.487 0-16.626-3.372-22.627-9.373s-9.373-14.141-9.373-22.627v-512c0-8.486 3.372-16.627 9.373-22.626 6.001-6.003 14.141-9.374 22.627-9.374h512c8.486 0 16.627 3.371 22.626 9.374 6.003 5.999 9.374 14.14 9.374 22.626v160h160c8.486 0 16.627 3.371 22.626 9.374 6.003 5.999 9.374 14.14 9.374 22.626v512c0 8.487-3.371 16.626-9.374 22.627-5.999 6.001-14.14 9.373-22.626 9.373zM640 128h-448v448h448v-448zM832 320h-128v288c0 8.487-3.371 16.626-9.374 22.627-5.999 6.001-14.14 9.373-22.626 9.373h-288v128h448v-448z" />
<glyph unicode="&#xe90c;" glyph-name="CurrencyCircleDollar" d="M512 864c-82.278 0-162.706-24.398-231.117-70.109s-121.731-110.681-153.216-186.695c-31.486-76.013-39.724-159.657-23.673-240.352s55.671-154.82 113.85-213.001c58.179-58.18 132.303-97.801 213-113.852 80.695-16.051 164.339-7.812 240.354 23.676 76.011 31.484 140.983 84.804 186.692 153.216 45.713 68.412 70.11 148.838 70.11 231.117-0.115 110.294-43.981 216.038-121.971 294.028s-183.735 121.856-294.029 121.972zM512 96c-69.619 0-137.674 20.646-195.561 59.324s-103.003 93.653-129.645 157.973c-26.642 64.32-33.613 135.095-20.031 203.375s47.107 131.002 96.335 180.23 111.949 82.753 180.23 96.335c68.284 13.582 139.059 6.611 203.375-20.031 64.32-26.642 119.296-71.759 157.973-129.645 38.682-57.886 59.324-125.941 59.324-195.561-0.107-93.325-37.227-182.797-103.215-248.785s-155.46-103.108-248.785-103.215zM672 368c0-29.705-11.802-58.193-32.802-79.198-21.005-21.001-49.493-32.802-79.198-32.802h-16v-32c0-8.486-3.371-16.627-9.374-22.626-5.999-6.003-14.14-9.374-22.626-9.374s-16.627 3.371-22.626 9.374c-6.003 5.999-9.374 14.14-9.374 22.626v32h-64c-8.487 0-16.626 3.371-22.627 9.374-6.001 5.999-9.373 14.14-9.373 22.626s3.372 16.627 9.373 22.626c6.001 6.003 14.14 9.374 22.627 9.374h144c12.732 0 24.939 5.056 33.941 14.059s14.059 21.21 14.059 33.941c0 12.732-5.056 24.939-14.059 33.941s-21.21 14.059-33.941 14.059h-96c-29.705 0-58.192 11.802-79.196 32.802-21.004 21.005-32.804 49.493-32.804 79.198s11.8 58.192 32.804 79.196c21.004 21.004 49.491 32.804 79.196 32.804h16v32c0 8.487 3.371 16.626 9.374 22.627 5.999 6.001 14.14 9.373 22.626 9.373s16.627-3.372 22.626-9.373c6.003-6.001 9.374-14.141 9.374-22.627v-32h64c8.486 0 16.627-3.372 22.626-9.373 6.003-6.001 9.374-14.141 9.374-22.627s-3.371-16.626-9.374-22.627c-5.999-6.001-14.14-9.373-22.626-9.373h-144c-12.732 0-24.939-5.057-33.941-14.059-9.001-9.001-14.059-21.21-14.059-33.941s5.057-24.939 14.059-33.941c9.003-9.003 21.21-14.059 33.941-14.059h96c29.705 0 58.193-11.802 79.198-32.802 21.001-21.005 32.802-49.493 32.802-79.198z" />
<glyph unicode="&#xe90d;" glyph-name="moon" d="M928.52 385.44c-4.342 4.335-10.337 7.016-16.958 7.016-2.513 0-4.936-0.386-7.212-1.103l0.17 0.046c-31.191-9.776-67.056-15.408-104.236-15.408-198.977 0-360.28 161.303-360.28 360.28 0 37.214 5.642 73.111 16.118 106.881l-0.682-2.553c0.655 2.083 1.032 4.478 1.032 6.961 0 13.255-10.745 24-24 24-2.494 0-4.9-0.381-7.162-1.087l0.17 0.046c-84.937-26.589-155.883-77.38-206.825-144.235l-0.735-1.005c-51.239-67.46-82.084-152.85-82.084-245.444 0-225.332 182.668-408 408-408 92.594 0 177.984 30.845 246.455 82.82l-1.011-0.736c67.861 51.678 118.651 122.623 144.449 204.645l0.791 2.915c0.658 2.089 1.038 4.491 1.038 6.981 0 6.632-2.69 12.635-7.038 16.979v0zM760.52 192.28c-59.416-44.95-134.549-72-216-72-198.823 0-360 161.177-360 360 0 81.451 27.050 156.584 72.656 216.906l-0.656-0.906c36.907 48.587 84.67 87.052 139.802 112.151l2.278 0.929c-4.2-21.986-6.602-47.273-6.602-73.122 0-225.465 182.775-408.24 408.24-408.24 25.849 0 51.137 2.402 75.653 6.996l-2.531-0.394c-25.963-57.496-64.394-105.34-112.072-141.671l-0.888-0.649z" />
<glyph unicode="&#xe90e;" glyph-name="DiscordLogo" d="M990.025 262.417l-118.037 465.559c-3.106 12.12-9.681 23.071-18.918 31.511-9.233 8.44-20.732 14.004-33.084 16.009l-144.239 23.68c-15.902 2.557-32.183-0.89-45.683-9.673s-23.253-22.273-27.358-37.847l-0.841-3.4c-0.542-2.16-0.627-4.41-0.252-6.606s1.203-4.288 2.436-6.145c1.229-1.856 2.837-3.435 4.715-4.635 1.873-1.2 3.981-1.996 6.182-2.334 33.097-4.858 65.749-12.375 97.638-22.48 7.974-2.406 14.733-7.753 18.91-14.959 4.173-7.205 5.449-15.729 3.571-23.841-1.079-4.228-3.012-8.19-5.679-11.643s-6.012-6.324-9.83-8.438c-3.814-2.113-8.026-3.423-12.369-3.849s-8.725 0.040-12.881 1.37c-118.327 36.288-244.791 36.428-363.2 0.4-8.013-2.694-16.756-2.199-24.413 1.384s-13.641 9.978-16.707 17.856c-1.457 4.043-2.086 8.337-1.847 12.628s1.338 8.489 3.235 12.346c1.897 3.856 4.55 7.291 7.803 10.1s7.037 4.933 11.129 6.247c32.288 10.284 65.356 17.936 98.88 22.88 2.202 0.339 4.308 1.134 6.185 2.334s3.482 2.779 4.713 4.635c1.231 1.856 2.062 3.949 2.437 6.145s0.289 4.446-0.255 6.606l-0.84 3.4c-4.106 15.587-13.871 29.085-27.389 37.864s-29.822 12.207-45.731 9.616l-144.32-23.68c-12.345-2.002-23.839-7.559-33.074-15.992s-15.813-19.375-18.926-31.488l-118.040-465.559c-3.701-14.635-2.090-30.106 4.546-43.665 6.636-13.555 17.867-24.32 31.694-30.374l268-118.839c8.058-3.584 16.765-5.483 25.583-5.577s17.563 1.617 25.696 5.026c8.134 3.409 15.484 8.444 21.599 14.801 6.115 6.353 10.867 13.888 13.962 22.148l13.958 37.798c0.832 2.266 1.143 4.689 0.905 7.087-0.235 2.402-1.011 4.719-2.27 6.775-1.259 2.061-2.965 3.806-4.992 5.111-2.031 1.306-4.326 2.133-6.721 2.428-38.858 4.706-77.196 13.009-114.52 24.798-7.939 2.415-14.669 7.748-18.833 14.925s-5.453 15.667-3.607 23.757c1.070 4.241 2.997 8.213 5.664 11.682 2.666 3.465 6.014 6.345 9.837 8.469 3.823 2.121 8.041 3.435 12.392 3.866 4.351 0.427 8.744-0.043 12.908-1.378 118.77-36.373 245.708-36.373 364.479 0 4.16 1.331 8.546 1.796 12.89 1.365 4.343-0.427 8.555-1.741 12.373-3.857s7.164-4.992 9.83-8.452c2.662-3.456 4.591-7.424 5.666-11.657 1.869-8.094 0.589-16.597-3.575-23.787-4.169-7.189-10.91-12.527-18.863-14.933-37.308-11.793-75.635-20.096-114.479-24.798-2.394-0.294-4.693-1.122-6.72-2.428-2.031-1.306-3.738-3.051-4.996-5.111-1.254-2.057-2.031-4.373-2.27-6.775-0.235-2.398 0.073-4.821 0.905-7.087l13.961-37.798c3.102-8.256 7.855-15.787 13.969-22.14 6.118-6.349 13.466-11.383 21.598-14.793s16.875-5.12 25.694-5.030c8.815 0.094 17.519 1.984 25.579 5.564l268.002 118.839c13.824 6.054 25.058 16.819 31.693 30.374 6.635 13.559 8.247 29.030 4.544 43.665zM367.986 351.979c-9.493 0-18.774 2.812-26.668 8.085-7.893 5.278-14.046 12.774-17.679 21.542-3.633 8.772-4.584 18.423-2.732 27.733 1.852 9.314 6.423 17.865 13.137 24.576 6.713 6.716 15.266 11.285 24.576 13.137s18.962 0.905 27.733-2.731c8.771-3.631 16.268-9.783 21.542-17.677s8.090-17.173 8.090-26.667c0-12.732-5.057-24.943-14.059-33.941-9.002-9.003-21.211-14.059-33.941-14.059zM655.987 351.979c-9.493 0-18.773 2.812-26.667 8.085-7.893 5.278-14.046 12.774-17.681 21.542-3.631 8.772-4.582 18.423-2.731 27.733 1.852 9.314 6.426 17.865 13.137 24.576 6.711 6.716 15.266 11.285 24.576 13.137s18.961 0.905 27.733-2.731c8.772-3.631 16.269-9.783 21.542-17.677s8.090-17.173 8.090-26.667c0-12.732-5.056-24.943-14.059-33.941-9.003-9.003-21.214-14.059-33.941-14.059z" />
<glyph unicode="&#xe90f;" glyph-name="DownloadSimple" d="M896 384v-256c0-8.486-3.371-16.627-9.374-22.626-5.999-6.003-14.14-9.374-22.626-9.374h-704c-8.487 0-16.626 3.371-22.627 9.374-6.001 5.999-9.373 14.14-9.373 22.626v256c0 8.486 3.372 16.627 9.373 22.626 6.001 6.003 14.141 9.374 22.627 9.374s16.626-3.371 22.627-9.374c6.001-5.999 9.373-14.14 9.373-22.626v-224h640v224c0 8.486 3.371 16.627 9.374 22.626 5.999 6.003 14.14 9.374 22.626 9.374s16.627-3.371 22.626-9.374c6.003-5.999 9.374-14.14 9.374-22.626zM489.361 361.361c2.97-2.978 6.498-5.338 10.385-6.946 3.883-1.613 8.047-2.441 12.254-2.441s8.371 0.828 12.254 2.441c3.887 1.609 7.415 3.968 10.385 6.946l160 160c2.974 2.974 5.333 6.502 6.942 10.385 1.609 3.886 2.436 8.049 2.436 12.254s-0.828 8.368-2.436 12.253c-1.609 3.885-3.968 7.414-6.942 10.388s-6.502 5.331-10.385 6.941c-3.887 1.609-8.051 2.437-12.254 2.437s-8.367-0.828-12.254-2.437c-3.883-1.609-7.411-3.968-10.385-6.941l-105.361-105.401v370.761c0 8.487-3.371 16.626-9.374 22.627-5.999 6.001-14.14 9.373-22.626 9.373s-16.627-3.372-22.626-9.373c-6.003-6.001-9.374-14.141-9.374-22.627v-370.761l-105.36 105.401c-6.005 6.004-14.149 9.378-22.64 9.378s-16.635-3.373-22.64-9.378c-6.004-6.005-9.378-14.149-9.378-22.64s3.373-16.636 9.378-22.639l160.001-160z" />
<glyph unicode="&#xe910;" glyph-name="EnvelopeSimple" d="M896 768h-768c-8.487 0-16.626-3.372-22.627-9.373s-9.373-14.141-9.373-22.627v-544c0-16.973 6.743-33.254 18.745-45.257s28.281-18.743 45.255-18.743h704c16.973 0 33.254 6.741 45.257 18.743s18.743 28.284 18.743 45.257v544c0 8.487-3.371 16.626-9.374 22.627-5.999 6.001-14.14 9.373-22.626 9.373zM864 192h-704v471.24l330.359-302.839c5.905-5.419 13.628-8.427 21.641-8.427s15.735 3.008 21.641 8.427l330.359 302.839v-471.24z" />
<glyph unicode="&#xe911;" glyph-name="Export" d="M864 511.974v-384c0-16.973-6.744-33.251-18.747-45.253s-28.281-18.747-45.253-18.747h-576c-16.974 0-33.253 6.744-45.255 18.747s-18.745 28.281-18.745 45.253v384c0 16.973 6.743 33.254 18.745 45.253 12.002 12.003 28.281 18.747 45.255 18.747h96c8.487 0 16.626-3.372 22.627-9.373s9.373-14.139 9.373-22.627c0-8.488-3.372-16.625-9.373-22.627s-14.141-9.373-22.627-9.373h-96v-384h576v384h-96c-8.488 0-16.625 3.372-22.627 9.373s-9.373 14.139-9.373 22.627c0 8.488 3.372 16.625 9.373 22.627s14.139 9.373 22.627 9.373h96c16.973 0 33.251-6.744 45.253-18.747 12.003-11.999 18.747-28.281 18.747-45.253zM374.641 681.335l105.359 105.4v-370.76c0-8.488 3.372-16.625 9.373-22.627s14.139-9.373 22.627-9.373c8.488 0 16.625 3.372 22.627 9.373s9.373 14.139 9.373 22.627v370.76l105.359-105.4c6.005-6.005 14.149-9.378 22.641-9.378s16.636 3.373 22.641 9.378c6.001 6.004 9.377 14.148 9.377 22.64s-3.376 16.636-9.377 22.64l-160 160c-2.973 2.975-6.502 5.336-10.386 6.946-3.888 1.611-8.049 2.439-12.255 2.439s-8.368-0.829-12.255-2.439c-3.884-1.61-7.413-3.971-10.386-6.946l-159.999-160c-6.005-6.004-9.378-14.148-9.378-22.64s3.373-16.636 9.378-22.64c6.004-6.005 14.148-9.378 22.64-9.378s16.636 3.373 22.641 9.378z" />
<glyph unicode="&#xe912;" glyph-name="Eye" d="M989.239 460.962c-1.399 3.157-35.281 78.318-110.601 153.638-100.361 100.36-227.119 153.4-366.639 153.4s-266.281-53.040-366.64-153.4c-75.32-75.32-109.36-150.6-110.6-153.638-1.819-4.096-2.76-8.525-2.76-13.001 0-4.48 0.94-8.909 2.76-13.001 1.4-3.162 35.28-78.281 110.6-153.6 100.36-100.322 227.12-153.361 366.64-153.361s266.278 53.039 366.639 153.361c75.319 75.319 109.201 150.438 110.601 153.6 1.818 4.092 2.761 8.521 2.761 13.001 0 4.476-0.943 8.905-2.761 13.001zM512 192c-123.12 0-230.68 44.762-319.721 133.001-36.534 36.331-67.616 77.76-92.28 122.999 24.657 45.244 55.74 86.673 92.28 123 89.040 88.24 196.6 133 319.721 133 123.119 0 230.682-44.76 319.718-133 36.608-36.318 67.759-77.748 92.48-123-28.838-53.841-154.479-256-412.198-256zM512 640c-37.973 0-75.098-11.261-106.67-32.358-31.575-21.097-56.183-51.084-70.716-86.166-14.532-35.085-18.334-73.69-10.926-110.933s25.694-71.454 52.546-98.308c26.852-26.85 61.064-45.137 98.308-52.544 37.244-7.411 75.849-3.61 110.933 10.923 35.081 14.532 65.067 39.142 86.165 70.716 21.099 31.578 32.358 68.698 32.358 106.671-0.051 50.906-20.301 99.711-56.294 135.706s-84.8 56.241-135.706 56.294zM512 320c-25.318 0-50.065 7.505-71.113 21.572-21.050 14.063-37.456 34.057-47.145 57.442-9.688 23.39-12.223 49.126-7.284 73.958 4.939 24.828 17.129 47.637 35.031 65.537 17.9 17.901 40.71 30.092 65.537 35.031 24.832 4.939 50.569 2.404 73.954-7.284 23.39-9.688 43.383-26.094 57.446-47.144 14.063-21.047 21.572-45.798 21.572-71.113 0-33.946-13.487-66.505-37.491-90.509s-56.563-37.491-90.509-37.491z" />
<glyph unicode="&#xe913;" glyph-name="FacebookLogo" d="M928 447.966c-0.132-101.675-37.436-199.791-104.887-275.866-67.447-76.079-160.388-124.868-261.316-137.178-2.244-0.252-4.523-0.026-6.673 0.661-2.155 0.691-4.139 1.826-5.82 3.341-1.685 1.51-3.025 3.362-3.938 5.431-0.917 2.069-1.382 4.305-1.365 6.566v301.043h96c4.386-0.013 8.725 0.883 12.753 2.62 4.028 1.741 7.654 4.288 10.658 7.488 2.999 3.2 5.312 6.985 6.788 11.115s2.091 8.521 1.801 12.898c-0.708 8.226-4.506 15.885-10.628 21.427s-14.114 8.563-22.374 8.452h-94.997v96c0 16.973 6.741 33.251 18.743 45.254s28.279 18.745 45.257 18.745h64c4.386-0.010 8.725 0.883 12.753 2.622s7.654 4.288 10.658 7.487c2.999 3.2 5.312 6.982 6.788 11.113s2.091 8.521 1.801 12.898c-0.708 8.242-4.518 15.91-10.658 21.455s-14.153 8.556-22.426 8.425h-62.916c-33.95 0-66.509-13.486-90.513-37.49s-37.487-56.562-37.487-90.508v-96h-96.002c-4.387 0.009-8.729-0.883-12.756-2.624-4.028-1.737-7.654-4.288-10.655-7.488s-5.312-6.98-6.79-11.11c-1.478-4.13-2.090-8.521-1.799-12.898 0.708-8.243 4.515-15.91 10.655-21.457s14.153-8.555 22.425-8.422h94.922v-301.12c0.013-2.257-0.452-4.493-1.365-6.558-0.909-2.069-2.249-3.917-3.925-5.427-1.681-1.51-3.657-2.65-5.807-3.345-2.15-0.691-4.42-0.922-6.665-0.67-103.625 12.617-198.737 63.684-266.509 143.083-67.771 79.403-103.264 181.355-99.451 285.675 8 216.001 182.96 391.601 399.12 400.001 55.962 2.168 111.791-6.974 164.139-26.879s100.147-50.163 140.531-88.965c40.384-38.802 72.529-85.351 94.511-136.863s33.348-106.927 33.421-162.932z" />
<glyph unicode="&#xe914;" glyph-name="arrow-right" d="M481.835 695.168l225.835-225.835h-494.336c-23.552 0-42.667-19.115-42.667-42.667s19.115-42.667 42.667-42.667h494.336l-225.835-225.835c-16.683-16.683-16.683-43.691 0-60.331s43.691-16.683 60.331 0l298.667 298.667c3.925 3.925 7.083 8.619 9.259 13.824 4.309 10.453 4.309 22.229 0 32.683-2.091 5.035-5.163 9.728-9.259 13.824l-298.667 298.667c-16.683 16.683-43.691 16.683-60.331 0s-16.683-43.691 0-60.331z" />
<glyph unicode="&#xe915;" glyph-name="Flag" d="M171.040 759.965c-3.442-2.984-6.208-6.669-8.112-10.808s-2.902-8.637-2.928-13.192v-672.001c0-8.485 3.372-16.625 9.373-22.627s14.141-9.373 22.627-9.373c8.487 0 16.626 3.372 22.627 9.373s9.373 14.142 9.373 22.627v176.922c107.16 84.641 199.479 39 305.799-13.641 65.602-32.439 136.24-67.397 212.001-67.397 55.72 0 114.161 18.999 175.28 71.998 3.441 2.984 6.21 6.671 8.112 10.807 1.905 4.14 2.904 8.638 2.929 13.195v480.118c-0.015 6.142-1.796 12.15-5.135 17.307-3.335 5.157-8.086 9.245-13.681 11.775-5.599 2.531-11.805 3.397-17.88 2.496s-11.765-3.532-16.384-7.578c-112-96.92-206.881-49.96-316.84 4.48-113.92 56.48-243.081 120.36-387.161-4.48zM864 270.965c-107.162-84.641-199.479-38.96-305.799 13.641-100.001 49.397-211.241 104.517-334.201 33.598v402.601c107.16 84.64 199.479 39 305.799-13.6 100.001-49.4 211.28-104.52 334.201-33.6v-402.64z" />
<glyph unicode="&#xe916;" glyph-name="GlobeSimple" d="M512 856c-80.695 0-159.577-23.929-226.673-68.76s-119.389-108.553-150.27-183.105c-30.881-74.552-38.961-156.587-23.217-235.734 15.743-79.142 54.601-151.842 111.661-208.9s129.758-95.919 208.905-111.663c79.142-15.74 161.178-7.663 235.729 23.219s138.274 83.174 183.104 150.272c44.834 67.093 68.762 145.975 68.762 226.671-0.128 108.169-43.153 211.872-119.642 288.359-76.484 76.487-180.19 119.514-288.358 119.641zM871.202 472h-175.68c-4.604 122.88-44.361 239.32-111.761 328.8 77.269-15.841 147.217-56.572 199.134-115.957 51.913-59.385 82.931-134.149 88.307-212.843zM512 88c-0.998-0.004-1.984 0.201-2.897 0.61-0.909 0.405-1.719 1.003-2.381 1.749-78.242 84.279-125.042 204.8-130.242 333.641h270.999c-5.158-128.841-51.998-249.361-130.197-333.641-0.661-0.747-1.476-1.344-2.385-1.749-0.913-0.41-1.899-0.614-2.897-0.61zM376.48 472c5.2 128.84 52 249.36 130.242 333.64 0.661 0.743 1.476 1.338 2.385 1.745s1.894 0.618 2.893 0.618c0.998 0 1.984-0.211 2.893-0.618s1.724-1.002 2.389-1.745c78.238-84.28 125.039-204.8 130.197-333.64h-270.999zM440.239 800.8c-67.399-89.48-107.159-205.92-111.759-328.8h-175.68c5.373 78.694 36.392 153.458 88.306 212.843s121.863 100.116 199.133 115.957zM152.8 424h175.68c4.6-122.88 44.36-239.322 111.759-328.798-77.269 15.838-147.218 56.572-199.133 115.955s-82.933 134.148-88.306 212.843zM583.761 95.202c67.401 89.476 107.157 205.918 111.761 328.798h175.68c-5.376-78.694-36.395-153.459-88.307-212.843-51.917-59.383-121.865-100.117-199.134-115.955z" />
<glyph unicode="&#xe917;" glyph-name="code-solid" d="M576 800l-192-704h64l192 704h-64zM254 755l-216-288-14-18.999 14-18.999 216-288 52 37.999-202 269.001 202 269-52 38zM770.001 755l-52.002-38 202.001-269-202.001-269.001 52.002-37.999 216 288 13.999 18.999-13.999 18.999-216 288z" />
<glyph unicode="&#xe918;" glyph-name="image" d="M864 800h-576c-16.974 0-33.253-6.743-45.255-18.745s-18.745-28.281-18.745-45.255v-64h-64c-16.974 0-33.253-6.743-45.255-18.745s-18.745-28.281-18.745-45.255v-448c0-16.973 6.743-33.254 18.745-45.257s28.281-18.743 45.255-18.743h576c16.973 0 33.254 6.741 45.257 18.743s18.743 28.284 18.743 45.257v64h64c16.973 0 33.254 6.741 45.257 18.743s18.743 28.284 18.743 45.257v448c0 16.974-6.741 33.253-18.743 45.255s-28.284 18.745-45.257 18.745zM288 736h576v-250.999l-40.282 40.239c-5.943 5.943-12.996 10.661-20.762 13.878s-16.090 4.873-24.495 4.873c-8.41 0-16.73-1.656-24.495-4.873-7.77-3.217-14.822-7.934-20.766-13.878l-80-80-176 176c-12.002 11.993-28.275 18.73-45.239 18.73-16.968 0-33.24-6.737-45.242-18.73l-98.72-98.718v213.478zM736 160h-576v448h64v-320c0-16.973 6.743-33.254 18.745-45.257s28.281-18.743 45.255-18.743h448v-64zM864 288h-576v144l144 144 198.639-198.639c6.003-5.999 14.14-9.365 22.622-9.365s16.619 3.366 22.618 9.365l102.643 102.639 85.478-85.521v-106.479zM640 624c0 9.493 2.816 18.774 8.090 26.668s12.77 14.046 21.542 17.679c8.768 3.633 18.419 4.584 27.733 2.732 9.31-1.852 17.865-6.423 24.576-13.136s11.285-15.266 13.137-24.577c1.852-9.311 0.9-18.962-2.731-27.733-3.635-8.771-9.788-16.268-17.681-21.542s-17.173-8.090-26.667-8.090c-12.732 0-24.939 5.057-33.941 14.059s-14.059 21.211-14.059 33.941z" />
<glyph unicode="&#xe919;" glyph-name="Info" d="M568 256c0-6.366-2.53-12.471-7.027-16.969-4.501-4.501-10.607-7.031-16.973-7.031-14.852 0-29.094 5.901-39.599 16.401-10.5 10.505-16.401 24.747-16.401 39.599v160c0 2.121-0.841 4.156-2.342 5.658-1.502 1.498-3.537 2.342-5.658 2.342-6.366 0-12.471 2.53-16.969 7.031-4.501 4.497-7.031 10.603-7.031 16.969s2.53 12.471 7.031 16.969c4.497 4.501 10.603 7.031 16.969 7.031 14.852 0 29.094-5.901 39.599-16.401 10.5-10.505 16.401-24.747 16.401-39.599v-160c0-2.121 0.845-4.156 2.342-5.658 1.502-1.498 3.537-2.342 5.658-2.342 6.366 0 12.471-2.53 16.973-7.031 4.497-4.497 7.027-10.603 7.027-16.969zM496 584c7.91 0 15.646 2.346 22.225 6.741 6.575 4.395 11.703 10.642 14.729 17.951 3.029 7.309 3.823 15.352 2.278 23.111s-5.355 14.886-10.948 20.48c-5.594 5.594-12.719 9.404-20.48 10.947s-15.804 0.751-23.113-2.276c-7.309-3.028-13.555-8.154-17.95-14.732s-6.741-14.312-6.741-22.223c0-10.609 4.215-20.783 11.716-28.284s17.677-11.716 28.284-11.716zM920 448c0-80.695-23.927-159.578-68.762-226.671-44.83-67.098-108.553-119.39-183.104-150.272s-156.587-38.959-235.729-23.219c-79.146 15.744-151.845 54.605-208.905 111.663s-95.918 129.758-111.661 208.9c-15.743 79.147-7.663 161.182 23.217 235.734s83.175 138.273 150.27 183.105c67.095 44.832 145.977 68.76 226.673 68.76 108.169-0.127 211.874-43.153 288.358-119.641 76.489-76.487 119.514-180.19 119.642-288.359zM872 448c0 71.202-21.111 140.803-60.672 200.005-39.556 59.202-95.782 105.344-161.562 132.591-65.783 27.248-138.167 34.377-208 20.486s-133.978-48.177-184.325-98.525c-50.347-50.347-84.634-114.493-98.524-184.325s-6.761-142.217 20.486-208c27.247-65.779 73.39-122.005 132.591-161.562s128.803-60.672 200.005-60.672c95.445 0.107 186.953 38.067 254.443 105.557s105.451 158.997 105.557 254.443z" />
<glyph unicode="&#xe91a;" glyph-name="LockKey" d="M512 512c-26.897-0.009-52.89-9.698-73.233-27.294-20.342-17.591-33.673-41.92-37.556-68.535s1.94-53.739 16.407-76.412c14.467-22.673 36.611-39.386 62.382-47.078v-68.681c0-8.486 3.371-16.627 9.374-22.626 5.999-6.003 14.14-9.374 22.626-9.374s16.627 3.371 22.626 9.374c6.003 5.999 9.374 14.14 9.374 22.626v68.681c25.771 7.693 47.915 24.405 62.383 47.078 14.464 22.673 20.288 49.796 16.405 76.412s-17.212 50.944-37.555 68.535c-20.343 17.596-46.336 27.285-73.233 27.294zM512 352c-9.493 0-18.773 2.816-26.667 8.090s-14.046 12.77-17.681 21.542c-3.631 8.768-4.582 18.419-2.731 27.733 1.852 9.31 6.426 17.865 13.137 24.576s15.266 11.285 24.576 13.137c9.314 1.852 18.965 0.9 27.733-2.731 8.772-3.635 16.269-9.788 21.542-17.681s8.090-17.173 8.090-26.667c0-12.732-5.056-24.939-14.059-33.941s-21.21-14.059-33.941-14.059zM832 640h-128v96c0 50.921-20.228 99.758-56.235 135.764s-84.843 56.236-135.765 56.236c-50.923 0-99.758-20.229-135.764-56.236s-56.236-84.843-56.236-135.764v-96h-128c-16.974 0-33.253-6.743-45.255-18.745s-18.745-28.281-18.745-45.255v-448c0-16.973 6.743-33.254 18.745-45.257s28.281-18.743 45.255-18.743h640c16.973 0 33.254 6.741 45.257 18.743s18.743 28.284 18.743 45.257v448c0 16.974-6.741 33.253-18.743 45.255s-28.284 18.745-45.257 18.745zM384 736c0 33.948 13.486 66.505 37.49 90.51s56.564 37.49 90.51 37.49c33.946 0 66.505-13.486 90.509-37.49s37.491-56.562 37.491-90.51v-96h-256v96zM832 128h-640v448h640v-448z" />
<glyph unicode="&#xe91b;" glyph-name="MapPin" d="M512 704c-31.645 0-62.579-9.384-88.891-26.965s-46.819-42.57-58.929-71.806c-12.11-29.236-15.279-61.407-9.105-92.444s21.412-59.546 43.788-81.922c22.376-22.374 50.886-37.617 81.923-43.791 31.037-6.17 63.209-3 92.445 9.108s54.226 32.614 71.803 58.928c17.582 26.312 26.967 57.246 26.967 88.891 0 42.435-16.855 83.131-46.863 113.137-30.003 30.006-70.702 46.863-113.137 46.863zM512 448c-18.987 0-37.548 5.63-53.335 16.179s-28.092 25.542-35.358 43.084c-7.266 17.542-9.167 36.844-5.463 55.466s12.847 35.728 26.273 49.154c13.426 13.426 30.532 22.569 49.154 26.273s37.923 1.803 55.464-5.463c17.541-7.266 32.538-19.57 43.085-35.358s16.179-34.348 16.179-53.335c0-25.461-10.112-49.879-28.119-67.882-18.002-18.003-42.419-28.118-67.881-28.118zM512 896c-93.324-0.106-182.795-37.225-248.785-103.216s-103.109-155.461-103.215-248.784c0-125.599 58.040-258.719 168-384.998 49.409-57.062 105.018-108.447 165.8-153.201 5.381-3.768 11.791-5.791 18.359-5.791s12.979 2.022 18.36 5.791c60.672 44.769 116.173 96.154 165.484 153.201 109.798 126.28 167.997 259.4 167.997 384.998-0.108 93.324-37.228 182.795-103.214 248.784-65.992 65.99-155.464 103.11-248.786 103.216zM512 71.997c-66.12 52.004-288 243-288 472.003 0 76.382 30.343 149.636 84.353 203.647s127.265 84.353 203.647 84.353c76.38 0 149.637-30.343 203.648-84.353s84.352-127.265 84.352-203.647c0-228.92-221.88-419.999-288-472.003z" />
<glyph unicode="&#xe91c;" glyph-name="web" d="M854 170.667v384h-172v-384h172zM640 384.667v170h-470v-170h470zM640 170.667v170h-470v-170h470zM854 768.667q34 0 59-26t25-60v-512q0-34-25-60t-59-26h-684q-34 0-59 26t-25 60v512q0 34 25 60t59 26h684z" />
<glyph unicode="&#xe91d;" glyph-name="Plus" d="M912 448c0-12.728-5.059-24.94-14.060-33.94s-21.212-14.060-33.94-14.060h-304v-304c0-12.728-5.059-24.94-14.060-33.94s-21.212-14.060-33.94-14.060c-12.73 0-24.94 5.059-33.941 14.060s-14.059 21.212-14.059 33.94v304h-304c-12.73 0-24.94 5.059-33.941 14.060s-14.059 21.212-14.059 33.94c0 12.73 5.057 24.94 14.059 33.941s21.211 14.059 33.941 14.059h304v304c0 12.73 5.057 24.94 14.059 33.941s21.211 14.059 33.941 14.059c12.728 0 24.94-5.057 33.94-14.059s14.060-21.211 14.060-33.941v-304h304c12.728 0 24.94-5.057 33.94-14.059s14.060-21.211 14.060-33.941z" />
<glyph unicode="&#xe91e;" glyph-name="question" d="M927.142 210.697c22.571 45.875 33.818 96.491 32.802 147.605s-14.263 101.244-38.635 146.189c-24.371 44.944-59.157 83.394-101.444 112.13s-90.842 46.922-141.602 53.034c-16.832 39.243-41.353 74.72-72.111 104.34-30.754 29.62-67.132 52.785-106.978 68.13-39.851 15.345-82.368 22.559-125.049 21.217s-84.66-11.212-123.467-29.030c-38.807-17.817-73.655-43.221-102.491-74.715s-51.078-68.441-65.414-108.664c-14.336-40.223-20.477-82.908-18.060-125.539 2.417-42.637 13.341-84.352 32.131-122.697l-30.64-107.281c-2.734-9.6-2.854-19.75-0.347-29.41s7.549-18.475 14.606-25.532c7.057-7.057 15.87-12.1 25.53-14.605 9.659-2.509 19.813-2.389 29.411 0.346l107.28 30.639c32.372-15.893 67.194-26.21 103-30.519 17.068-39.987 42.106-76.079 73.585-106.069 31.477-29.986 68.738-53.248 109.506-68.361s84.186-21.756 127.607-19.529c43.422 2.227 85.935 13.278 124.941 32.478l107.281-30.639c9.596-2.735 19.75-2.854 29.41-0.346 9.66 2.505 18.475 7.548 25.532 14.605s12.096 15.872 14.605 25.532c2.509 9.66 2.389 19.81-0.346 29.41l-30.643 107.281zM246.104 323.093c-2.974 0-5.935-0.401-8.8-1.199l-105.64-30.199 30.2 105.638c2.263 8.051 1.287 16.666-2.72 24-29.423 54.020-38.396 116.832-25.274 176.929s47.461 113.452 96.723 150.289c49.263 36.837 110.149 54.689 171.504 50.285s119.067-30.77 162.562-74.266c43.499-43.496 69.862-101.208 74.266-162.563 4.403-61.353-13.449-122.242-50.283-171.505-36.838-49.259-90.193-83.601-150.289-96.721-60.097-13.124-122.91-4.151-176.928 25.271-4.684 2.62-9.954 4.011-15.32 4.041zM862.106 205.333l30.199-105.638-105.643 30.199c-8.047 2.266-16.661 1.289-24-2.718-58.987-32.094-128.213-39.748-192.789-21.316-64.572 18.432-119.33 61.478-152.489 119.876 43.817 4.561 86.219 18.133 124.546 39.855 38.327 21.726 71.748 51.136 98.172 86.391 26.419 35.251 45.274 75.584 55.373 118.464 10.095 42.884 11.226 87.389 3.311 130.728 38.345-9.037 74.086-26.801 104.439-51.91 30.357-25.108 54.511-56.887 70.579-92.855 16.064-35.972 23.612-75.166 22.054-114.53-1.553-39.364-12.177-77.837-31.036-112.427-4.036-7.369-5.013-16.034-2.718-24.119z" />
<glyph unicode="&#xe91f;" glyph-name="SealQuestion" d="M864.815 552.192c-14.003 14.634-28.489 29.714-33.95 42.974-5.052 12.145-5.35 32.277-5.645 51.777-0.559 36.251-1.152 77.331-29.717 105.894-28.561 28.563-69.641 29.157-105.894 29.714-19.499 0.297-39.629 0.594-51.776 5.646-13.222 5.46-28.339 19.946-42.974 33.949-25.63 24.626-54.75 52.52-93.525 52.52s-67.861-27.894-93.526-52.52c-14.634-14.003-29.714-28.489-42.974-33.949-12.071-5.051-32.277-5.348-51.777-5.646-36.251-0.557-77.331-1.152-105.894-29.714s-28.972-69.643-29.714-105.894c-0.297-19.5-0.594-39.632-5.646-51.777-5.46-13.223-19.946-28.34-33.949-42.974-24.626-25.63-52.52-54.75-52.52-93.526s27.894-67.861 52.52-93.525c14.003-14.635 28.489-29.713 33.949-42.974 5.051-12.147 5.348-32.277 5.646-51.776 0.557-36.254 1.152-77.333 29.714-105.894 28.563-28.565 69.643-29.158 105.894-29.717 19.5-0.294 39.632-0.593 51.777-5.645 13.223-5.461 28.34-19.947 42.974-33.95 25.63-24.623 54.75-52.518 93.526-52.518s67.861 27.895 93.525 52.518c14.635 14.003 29.713 28.489 42.974 33.95 12.147 5.052 32.277 5.35 51.776 5.645 36.254 0.559 77.333 1.152 105.894 29.717 28.565 28.561 29.158 69.641 29.717 105.894 0.294 19.499 0.593 39.629 5.645 51.776 5.461 13.222 19.947 28.339 33.95 42.974 24.623 25.63 52.518 54.75 52.518 93.525s-27.895 67.861-52.518 93.526zM821.914 406.259c-17.792-18.573-36.215-37.777-45.982-61.363-9.361-22.656-9.771-48.542-10.142-73.617-0.371-25.997-0.781-53.222-12.331-64.738s-38.592-11.959-64.738-12.331c-25.075-0.371-50.961-0.781-73.617-10.142-23.586-9.766-42.79-28.19-61.363-45.982-18.569-17.792-37.551-35.989-52.407-35.989s-33.984 18.274-52.407 35.989c-18.423 17.719-37.775 36.215-61.361 45.982-22.657 9.361-48.546 9.771-73.617 10.142-26 0.371-53.226 0.781-64.74 12.331s-11.96 38.592-12.331 64.738c-0.372 25.075-0.78 50.961-10.14 73.617-9.769 23.586-28.192 42.79-45.983 61.363-17.792 18.569-35.991 37.551-35.991 52.407s18.274 33.984 35.991 52.407c17.717 18.423 36.214 37.775 45.983 61.361 9.36 22.657 9.769 48.546 10.14 73.617 0.371 26 0.78 53.226 12.331 64.74s38.592 11.96 64.74 12.331c25.071 0.372 50.96 0.78 73.617 10.14 23.586 9.769 42.788 28.192 61.361 45.983 18.569 17.792 37.551 35.991 52.407 35.991s33.984-18.274 52.407-35.991c18.423-17.717 37.777-36.214 61.363-45.983 22.656-9.36 48.542-9.769 73.617-10.14 25.997-0.371 53.222-0.78 64.738-12.331s11.959-38.592 12.331-64.74c0.371-25.071 0.781-50.96 10.142-73.617 9.766-23.586 28.19-42.788 45.982-61.361 17.792-18.569 35.989-37.551 35.989-52.407s-18.274-33.984-35.989-52.407zM545.903 265.523c0-8.815-2.611-17.434-7.509-24.764-4.898-7.326-11.857-13.039-20.002-16.414s-17.109-4.258-25.754-2.539c-8.644 1.724-16.589 5.965-22.822 12.198s-10.479 14.178-12.198 22.822c-1.719 8.649-0.836 17.609 2.539 25.754 3.371 8.145 9.084 15.104 16.414 20.002s15.949 7.514 24.764 7.514c11.823 0 23.159-4.698 31.518-13.056s13.052-19.695 13.052-31.518zM649.903 532.954c0-64.555-51.106-118.596-118.857-131.042v-2.675c0-7.881-3.127-15.437-8.7-21.009-5.577-5.572-13.133-8.704-21.013-8.704s-15.437 3.132-21.009 8.704c-5.577 5.572-8.704 13.129-8.704 21.009v29.717c0 7.881 3.127 15.437 8.704 21.009 5.572 5.572 13.129 8.704 21.009 8.704 49.139 0 89.143 33.429 89.143 74.287 0 40.856-40.004 74.284-89.143 74.284s-89.143-33.428-89.143-74.284v-14.857c0-7.881-3.13-15.441-8.703-21.013s-13.131-8.704-21.011-8.704c-7.881 0-15.439 3.132-21.011 8.704s-8.703 13.133-8.703 21.013v14.857c0 73.727 66.634 133.713 148.571 133.713s148.57-59.986 148.57-133.713z" />
<glyph unicode="&#xe920;" glyph-name="Share" d="M918.639 521.344l-192-192c-6.003-6.007-14.148-9.378-22.639-9.378s-16.636 3.371-22.639 9.378c-6.007 6.003-9.378 14.148-9.378 22.639s3.371 16.636 9.378 22.639l137.399 137.361h-158.758c-78.054 0.021-153.903-25.903-215.616-73.69-61.713-47.791-105.793-114.735-125.306-190.31-2.122-8.222-7.423-15.266-14.737-19.58s-16.042-5.542-24.264-3.422c-8.221 2.121-15.264 7.424-19.577 14.737s-5.545 16.043-3.423 24.265c23.025 89.34 75.11 168.482 148.056 224.964 72.944 56.487 162.604 87.105 254.866 87.035h158.839l-137.481 137.36c-2.974 2.973-5.333 6.503-6.942 10.387s-2.436 8.048-2.436 12.253c0 4.205 0.828 8.368 2.436 12.253s3.968 7.414 6.942 10.387c6.003 6.004 14.148 9.378 22.639 9.378 4.203 0 8.367-0.828 12.254-2.437 3.883-1.609 7.411-3.968 10.385-6.941l192-192c2.978-2.972 5.338-6.501 6.946-10.386 1.613-3.885 2.441-8.049 2.441-12.254s-0.828-8.369-2.441-12.253c-1.609-3.887-3.968-7.415-6.946-10.385zM768 127.983h-608v479.999c0 8.487-3.372 16.626-9.373 22.627s-14.141 9.373-22.627 9.373c-8.487 0-16.626-3.371-22.627-9.373s-9.373-14.14-9.373-22.627v-511.999c0-8.486 3.372-16.627 9.373-22.626 6.001-6.003 14.141-9.374 22.627-9.374h640c8.486 0 16.627 3.371 22.626 9.374 6.003 5.999 9.374 14.14 9.374 22.626s-3.371 16.627-9.374 22.626c-5.999 6.003-14.14 9.374-22.626 9.374z" />
<glyph unicode="&#xe921;" glyph-name="ShareFat" d="M950.639 534.615l-320 320c-4.476 4.478-10.176 7.529-16.38 8.767-6.208 1.238-12.642 0.608-18.492-1.811s-10.85-6.519-14.37-11.779c-3.516-5.261-5.397-11.447-5.402-17.776v-161.4c-103.757-8.88-218.358-59.68-312.638-139.641-113.52-96.32-184.2-220.437-199.040-349.478-1.16-10.031 0.875-20.177 5.813-28.983 4.939-8.811 12.53-15.838 21.693-20.083s19.433-5.491 29.346-3.563c9.913 1.929 18.965 6.938 25.868 14.31 44 46.839 200.56 194.957 428.958 208v-159.164c0.004-6.327 1.886-12.514 5.402-17.775 3.52-5.261 8.521-9.361 14.37-11.78s12.284-3.046 18.492-1.809c6.204 1.237 11.904 4.288 16.38 8.768l320 320c5.982 5.999 9.344 14.123 9.344 22.596s-3.362 16.602-9.344 22.602zM639.996 269.257v114.756c0 8.491-3.371 16.627-9.37 22.63-6.003 5.999-14.14 9.37-22.63 9.37-112.32 0-221.718-29.316-325.158-87.198-52.682-29.611-101.767-65.203-146.28-106.082 23.2 95.36 81.68 186.044 168.2 259.443 92.88 78.759 206.24 125.839 303.238 125.839 8.491 0 16.627 3.372 22.63 9.373 5.999 6.001 9.37 14.14 9.37 22.627v114.72l242.761-242.722-242.761-242.756z" />
<glyph unicode="&#xe922;" glyph-name="SignOut" d="M432 77.333c0-9.195-3.652-18.014-10.154-24.512-6.501-6.502-15.319-10.155-24.513-10.155h-242.667c-18.388 0-36.023 7.305-49.026 20.309-13.003 13.001-20.307 30.635-20.307 49.024v693.333c0 18.388 7.305 36.023 20.307 49.026s30.638 20.307 49.026 20.307h242.667c9.194 0 18.012-3.652 24.513-10.154s10.154-15.319 10.154-24.513c0-9.194-3.652-18.012-10.154-24.513s-15.319-10.154-24.513-10.154h-242.667v-693.333h242.667c9.194 0 18.012-3.652 24.513-10.155 6.502-6.498 10.154-15.317 10.154-24.512zM907.191 483.191l-173.333 173.335c-6.502 6.505-15.326 10.159-24.525 10.159s-18.022-3.654-24.525-10.159c-6.507-6.505-10.163-15.327-10.163-24.527s3.657-18.022 10.163-24.527l114.18-114.14h-401.655c-9.194 0-18.012-3.652-24.513-10.155-6.502-6.498-10.154-15.317-10.154-24.512s3.652-18.014 10.154-24.512c6.501-6.502 15.319-10.155 24.513-10.155h401.655l-114.18-114.142c-6.507-6.502-10.163-15.326-10.163-24.525s3.657-18.022 10.163-24.525c6.502-6.507 15.326-10.163 24.525-10.163s18.022 3.657 24.525 10.163l173.333 173.333c3.226 3.217 5.781 7.040 7.526 11.251 1.745 4.207 2.641 8.717 2.641 13.274s-0.896 9.067-2.641 13.274c-1.745 4.211-4.301 8.034-7.526 11.251z" />
<glyph unicode="&#xe923;" glyph-name="Star" d="M937.157 500.575l-180.001-155.323 54.843-232.28c3.024-12.61 2.245-25.83-2.242-37.998-4.484-12.167-12.475-22.733-22.963-30.358-10.485-7.629-23-11.977-35.953-12.496-12.957-0.519-25.779 2.812-36.842 9.574l-202.002 124.317-202.119-124.317c-11.063-6.725-23.868-10.024-36.802-9.487-12.935 0.541-25.421 4.893-35.886 12.515s-18.441 18.169-22.924 30.314c-4.483 12.145-5.272 25.344-2.268 37.936l55.040 232.28-180 155.323c-9.788 8.459-16.867 19.613-20.353 32.073s-3.224 25.669 0.753 37.979c3.977 12.31 11.493 23.175 21.609 31.242 10.116 8.065 22.384 12.971 35.271 14.105l236 19.040 91.040 220.32c4.926 12.007 13.316 22.278 24.093 29.507 10.781 7.228 23.468 11.088 36.447 11.088s25.666-3.86 36.443-11.088c10.781-7.228 19.167-17.499 24.097-29.507l91.001-220.32 235.999-19.040c12.913-1.092 25.216-5.971 35.368-14.024s17.704-18.925 21.705-31.249c4.001-12.328 4.279-25.56 0.79-38.042-3.485-12.482-10.576-23.654-20.385-32.124l0.241 0.040z" />
<glyph unicode="&#xe924;" glyph-name="Star-fill" d="M956.744 570.966c-4.004 12.299-11.556 23.139-21.704 31.154-10.153 8.015-22.446 12.847-35.338 13.886l-236.001 19.040-91.121 220.36c-4.925 12.007-13.312 22.278-24.095 29.507-10.778 7.228-23.465 11.088-36.444 11.088s-25.665-3.859-36.445-11.088c-10.78-7.228-19.167-17.499-24.095-29.507l-91.040-220.32-236.12-19.080c-12.913-1.092-25.216-5.971-35.369-14.024s-17.702-18.925-21.704-31.25c-4.002-12.326-4.277-25.559-0.792-38.040s10.577-23.657 20.385-32.126l180-155.319-54.84-232.243c-3.067-12.616-2.316-25.861 2.158-38.047 4.474-12.191 12.468-22.779 22.969-30.413 10.501-7.639 23.034-11.986 36.009-12.488s25.806 2.867 36.865 9.667l201.999 124.324 202.122-124.324c11.059-6.723 23.864-10.020 36.803-9.482 12.933 0.538 25.421 4.895 35.886 12.513 10.465 7.624 18.437 18.171 22.922 30.316 4.48 12.145 5.274 25.344 2.268 37.934l-55.040 232.284 179.999 155.318c9.887 8.455 17.044 19.655 20.562 32.18s3.241 25.813-0.799 38.18zM895.38 549.086l-194.801-167.999c-4.439-3.83-7.747-8.806-9.549-14.387-1.807-5.581-2.048-11.551-0.691-17.254l59.52-251.197c0.154-0.348 0.169-0.742 0.046-1.096-0.128-0.358-0.389-0.655-0.727-0.824-0.717-0.563-0.916-0.44-1.516 0l-218.88 134.6c-5.043 3.098-10.844 4.736-16.763 4.736-5.917 0-11.718-1.638-16.759-4.736l-218.879-134.682c-0.6-0.358-0.76-0.481-1.52 0-0.338 0.174-0.596 0.466-0.723 0.824s-0.111 0.748 0.043 1.096l59.52 251.197c1.356 5.709 1.119 11.679-0.687 17.254-1.806 5.581-5.111 10.557-9.553 14.387l-194.8 168.001c-0.48 0.4-0.92 0.76-0.52 2s0.72 1.080 1.32 1.16l255.68 20.64c5.864 0.503 11.476 2.614 16.219 6.1s8.431 8.212 10.661 13.66l98.48 238.44c0.32 0.68 0.44 1 1.4 1 0.958 0 1.081-0.32 1.399-1l98.719-238.44c2.253-5.449 5.965-10.17 10.732-13.643 4.762-3.473 10.394-5.562 16.271-6.036l255.677-20.64c0.604 0 0.963 0 1.321-1.16 0.364-1.16 0-1.6-0.64-2z" />
<glyph unicode="&#xe925;" glyph-name="Sun" d="M488 800v96c0 6.365 2.53 12.47 7.031 16.971 4.497 4.501 10.603 7.029 16.969 7.029s12.471-2.529 16.969-7.029c4.501-4.501 7.031-10.606 7.031-16.971v-96c0-6.365-2.53-12.47-7.031-16.971-4.497-4.501-10.603-7.029-16.969-7.029s-12.471 2.528-16.969 7.029c-4.501 4.501-7.031 10.606-7.031 16.971zM760 448c0-49.050-14.545-96.998-41.796-137.783-27.251-40.781-65.984-72.567-111.3-91.341-45.312-18.769-95.177-23.68-143.287-14.11-48.106 9.57-92.295 33.186-126.979 67.87s-58.303 78.874-67.872 126.98c-9.569 48.111-4.658 97.975 14.112 143.29 18.77 45.316 50.557 84.048 91.341 111.299s88.732 41.795 137.781 41.795c65.749-0.074 128.789-26.226 175.279-72.719 46.494-46.493 72.649-109.531 72.721-175.281zM712 448c0 39.556-11.729 78.225-33.707 111.114s-53.21 58.524-89.758 73.662c-36.544 15.137-76.757 19.098-115.554 11.381s-74.432-26.765-102.403-54.736c-27.971-27.971-47.019-63.606-54.736-102.403s-3.756-79.010 11.381-115.554c15.138-36.548 40.772-67.78 73.662-89.758s71.558-33.707 111.114-33.707c53.022 0.064 103.859 21.154 141.35 58.65 37.495 37.491 58.586 88.329 58.65 141.35zM239.040 687.040c2.197-2.358 4.847-4.249 7.791-5.561s6.122-2.017 9.344-2.074c3.223-0.057 6.423 0.536 9.412 1.743s5.703 3.004 7.982 5.283c2.279 2.279 4.076 4.994 5.283 7.982s1.8 6.189 1.743 9.412c-0.057 3.223-0.762 6.4-2.074 9.344s-3.203 5.594-5.561 7.791l-64 64c-4.55 4.239-10.567 6.547-16.785 6.438s-12.15-2.628-16.547-7.025c-4.397-4.397-6.916-10.33-7.025-16.547s2.198-12.235 6.438-16.785l64-64zM239.040 208.96l-64-64c-2.358-2.197-4.249-4.847-5.561-7.791s-2.017-6.123-2.074-9.344c-0.057-3.221 0.536-6.426 1.743-9.412s3.004-5.705 5.283-7.983c2.279-2.278 4.994-4.075 7.982-5.282s6.189-1.801 9.412-1.741c3.223 0.055 6.4 0.759 9.344 2.074 2.944 1.31 5.594 3.2 7.791 5.559l64 64c2.358 2.197 4.249 4.847 5.561 7.791s2.017 6.123 2.074 9.344c0.057 3.221-0.536 6.426-1.743 9.412s-3.004 5.705-5.283 7.983c-2.279 2.278-4.994 4.075-7.982 5.282s-6.189 1.801-9.412 1.741c-3.223-0.055-6.4-0.759-9.344-2.074-2.944-1.31-5.594-3.2-7.791-5.559zM768 680c6.362 0.006 12.463 2.538 16.96 7.040l64 64c4.241 4.55 6.549 10.567 6.438 16.785s-2.628 12.15-7.027 16.547c-4.395 4.397-10.33 6.916-16.546 7.025s-12.237-2.198-16.785-6.438l-64-64c-3.354-3.356-5.636-7.631-6.558-12.284-0.926-4.653-0.448-9.475 1.365-13.858s4.885-8.13 8.832-10.767c3.942-2.638 8.576-4.047 13.321-4.052zM784.96 208.96c-4.548 4.241-10.569 6.549-16.785 6.438s-12.151-2.628-16.546-7.027c-4.399-4.395-6.916-10.33-7.027-16.546s2.197-12.237 6.438-16.785l64-64c4.548-4.241 10.569-6.549 16.785-6.438s12.151 2.628 16.546 7.027c4.399 4.395 6.916 10.33 7.027 16.546s-2.197 12.237-6.438 16.785l-64 64zM184 448c0 6.366-2.528 12.471-7.029 16.969-4.501 4.501-10.606 7.031-16.971 7.031h-96c-6.365 0-12.47-2.53-16.971-7.031-4.501-4.497-7.029-10.603-7.029-16.969s2.529-12.471 7.029-16.969c4.501-4.501 10.606-7.031 16.971-7.031h96c6.365 0 12.47 2.53 16.971 7.031 4.501 4.497 7.029 10.603 7.029 16.969zM512 120c-6.366 0-12.471-2.53-16.969-7.031-4.501-4.497-7.031-10.603-7.031-16.969v-96c0-6.366 2.53-12.471 7.031-16.969 4.497-4.501 10.603-7.031 16.969-7.031s12.471 2.53 16.969 7.031c4.501 4.497 7.031 10.603 7.031 16.969v96c0 6.366-2.53 12.471-7.031 16.969-4.497 4.501-10.603 7.031-16.969 7.031zM960 472h-96c-6.366 0-12.471-2.53-16.969-7.031-4.501-4.497-7.031-10.603-7.031-16.969s2.53-12.471 7.031-16.969c4.497-4.501 10.603-7.031 16.969-7.031h96c6.366 0 12.471 2.53 16.969 7.031 4.501 4.497 7.031 10.603 7.031 16.969s-2.53 12.471-7.031 16.969c-4.497 4.501-10.603 7.031-16.969 7.031z" />
<glyph unicode="&#xe926;" glyph-name="TelegramLogo" d="M915.503 855.247c-4.958 4.281-10.991 7.129-17.446 8.235s-13.090 0.431-19.191-1.955l-810.641-317.24c-11.488-4.467-21.215-12.545-27.715-23.020s-9.422-22.775-8.325-35.051c1.096-12.279 6.152-23.868 14.405-33.024s19.257-15.386 31.355-17.745l210.040-41.242v-234.197c-0.041-12.757 3.75-25.233 10.882-35.81s17.276-18.769 29.118-23.509c11.823-4.83 24.826-5.99 37.318-3.328s23.893 9.020 32.722 18.244l101.278 105.041 160.683-140.638c11.593-10.283 26.543-15.974 42.039-16 6.788 0.004 13.538 1.071 19.998 3.157 10.56 3.354 20.058 9.408 27.546 17.57s12.706 18.146 15.138 28.949l162.359 706.322c1.451 6.37 1.143 13.015-0.896 19.223-2.035 6.208-5.722 11.744-10.667 16.017zM702.106 128.009l-330.722 289.997 476.002 341.162-145.28-631.159z" />
<glyph unicode="&#xe927;" glyph-name="ThumbsDown" d="M959.279 331.998l-48 384.002c-2.923 23.205-14.217 44.544-31.761 60.011s-40.128 23.997-63.518 23.989h-688c-16.974 0-33.253-6.743-45.255-18.745s-18.745-28.281-18.745-45.255v-352c0-16.973 6.743-33.254 18.745-45.257s28.281-18.743 45.255-18.743h172.24l151.118-302.319c2.662-5.316 6.75-9.788 11.81-12.911s10.889-4.774 16.832-4.77c42.436 0 83.132 16.858 113.135 46.865 30.007 30.003 46.865 70.699 46.865 113.135v64h224c13.623-0.004 27.089 2.889 39.509 8.491 12.416 5.602 23.501 13.781 32.512 24 9.011 10.214 15.748 22.229 19.759 35.251 4.011 13.018 5.201 26.743 3.499 40.256zM288 384h-160v352h160v-352zM888 298.842c-2.982-3.43-6.673-6.178-10.812-8.047-4.143-1.873-8.644-2.825-13.188-2.795h-256c-8.486 0-16.627-3.371-22.626-9.374-6.003-5.999-9.374-14.14-9.374-22.626v-96c0.004-22.195-7.68-43.708-21.747-60.873-14.067-17.169-33.651-28.932-55.411-33.289l-146.842 293.722v376.439h464c7.795 0.003 15.326-2.841 21.171-7.997 5.85-5.155 9.613-12.268 10.59-20.003l48-383.998c0.597-4.506 0.213-9.088-1.126-13.431-1.335-4.343-3.601-8.346-6.635-11.729z" />
<glyph unicode="&#xe928;" glyph-name="ThumbsUp" d="M936 639.52c-9.011 10.211-20.092 18.388-32.503 23.988-12.416 5.6-25.877 8.495-39.497 8.492h-224v64c0 42.435-16.858 83.131-46.861 113.137-30.007 30.006-70.703 46.863-113.139 46.863-5.943 0.004-11.772-1.648-16.832-4.771s-9.148-7.593-11.81-12.91l-151.118-302.32h-172.24c-16.974 0-33.253-6.743-45.255-18.745s-18.745-28.282-18.745-45.255v-352c0-16.973 6.743-33.254 18.745-45.257s28.281-18.743 45.255-18.743h688c23.39-0.009 45.973 8.521 63.518 23.987s28.838 36.809 31.761 60.015l48 383.998c1.702 13.519 0.508 27.246-3.507 40.267s-10.756 25.039-19.772 35.253zM128 512h160v-352h-160v352zM895.761 572l-48-384.002c-0.977-7.731-4.74-14.848-10.59-20.002-5.845-5.154-13.376-8-21.171-7.996h-464v376.44l146.842 293.72c21.76-4.355 41.344-16.118 55.411-33.286s21.751-38.679 21.747-60.874v-96c0-8.487 3.371-16.626 9.374-22.627 5.999-6.001 14.14-9.373 22.626-9.373h256c4.54 0.002 9.028-0.963 13.171-2.831 4.139-1.868 7.834-4.594 10.837-8s5.248-7.411 6.583-11.75c1.34-4.34 1.737-8.914 1.169-13.42z" />
<glyph unicode="&#xe929;" glyph-name="Trash" d="M864 768h-160v32c0 25.461-10.116 49.879-28.116 67.882-18.004 18.003-42.423 28.118-67.884 28.118h-192c-25.461 0-49.88-10.114-67.882-28.118s-28.118-42.422-28.118-67.882v-32h-160c-8.487 0-16.626-3.372-22.627-9.373s-9.373-14.141-9.373-22.627c0-8.487 3.372-16.626 9.373-22.627s14.141-9.373 22.627-9.373h32v-576c0-16.973 6.743-33.251 18.745-45.253s28.281-18.747 45.255-18.747h512c16.973 0 33.251 6.744 45.253 18.747s18.747 28.281 18.747 45.253v576h32c8.488 0 16.625 3.372 22.627 9.373s9.373 14.141 9.373 22.627c0 8.487-3.372 16.626-9.373 22.627s-14.139 9.373-22.627 9.373zM384 800c0 8.487 3.372 16.626 9.373 22.627s14.139 9.373 22.627 9.373h192c8.488 0 16.625-3.372 22.627-9.373s9.373-14.141 9.373-22.627v-32h-256v32zM768 128h-512v576h512v-576zM448 544v-256c0-8.488-3.372-16.625-9.373-22.627s-14.139-9.373-22.627-9.373c-8.488 0-16.625 3.372-22.627 9.373s-9.373 14.139-9.373 22.627v256c0 8.488 3.372 16.625 9.373 22.627s14.139 9.373 22.627 9.373c8.488 0 16.625-3.372 22.627-9.373s9.373-14.139 9.373-22.627zM640 544v-256c0-8.488-3.372-16.625-9.373-22.627s-14.139-9.373-22.627-9.373c-8.488 0-16.625 3.372-22.627 9.373s-9.373 14.139-9.373 22.627v256c0 8.488 3.372 16.625 9.373 22.627s14.139 9.373 22.627 9.373c8.488 0 16.625-3.372 22.627-9.373s9.373-14.139 9.373-22.627z" />
<glyph unicode="&#xe92a;" glyph-name="UserCircle" d="M512 864c-82.278 0-162.706-24.398-231.117-70.109s-121.731-110.681-153.216-186.695c-31.486-76.013-39.724-159.657-23.673-240.352s55.671-154.82 113.85-213.001c58.179-58.18 132.303-97.801 213-113.852 80.695-16.051 164.339-7.812 240.354 23.676 76.011 31.484 140.983 84.804 186.692 153.216 45.713 68.412 70.11 148.838 70.11 231.117-0.115 110.294-43.981 216.038-121.971 294.028s-183.735 121.856-294.029 121.972zM296.32 170.001c23.15 36.203 55.040 65.997 92.733 86.635 37.695 20.642 79.973 31.458 122.947 31.458s85.257-10.816 122.948-31.458c37.692-20.638 69.581-50.432 92.732-86.635-61.666-47.962-137.557-73.997-215.68-73.997s-154.013 26.035-215.68 73.997zM384 480c0 25.314 7.507 50.065 21.572 71.113 14.065 21.050 34.057 37.456 57.446 47.144 23.386 9.688 49.122 12.223 73.954 7.284 24.828-4.939 47.637-17.13 65.536-35.031 17.903-17.901 30.093-40.709 35.034-65.537 4.937-24.832 2.402-50.569-7.287-73.958-9.685-23.386-26.091-43.379-47.142-57.442-21.047-14.067-45.798-21.572-71.113-21.572-33.946 0-66.505 13.487-90.51 37.491s-37.49 56.563-37.49 90.509zM775.040 214.362c-35.691 51.716-85.871 91.725-144.239 114.999 31.351 24.691 54.229 58.543 65.451 96.845 11.226 38.298 10.231 79.142-2.833 116.852-13.069 37.71-37.564 70.41-70.076 93.554-32.516 23.144-71.433 35.581-111.343 35.581s-78.827-12.436-111.341-35.581c-32.514-23.144-57.008-55.844-70.075-93.554s-14.059-78.555-2.836-116.852c11.222-38.302 34.1-72.154 65.453-96.845-58.367-23.275-108.551-63.283-144.24-114.999-45.097 50.714-74.573 113.382-84.878 180.459s-1 135.706 26.795 197.616c27.795 61.912 72.894 114.469 129.868 151.343s123.39 56.492 191.255 56.492c67.866 0 134.285-19.618 191.258-56.492s102.071-89.431 129.865-151.343c27.797-61.91 37.103-130.54 26.795-197.616-10.304-67.076-39.778-129.745-84.877-180.459z" />
<glyph unicode="&#xe92b;" glyph-name="video" d="M657.762 538.64l-192 128c-4.821 3.216-10.428 5.063-16.213 5.343-5.79 0.28-11.546-1.016-16.653-3.751s-9.378-6.806-12.354-11.778c-2.976-4.972-4.546-10.659-4.542-16.454v-256c-0.004-5.794 1.566-11.482 4.542-16.452 2.976-4.975 7.247-9.045 12.354-11.78s10.863-4.032 16.653-3.75c5.786 0.282 11.392 2.125 16.213 5.342l192 128c4.386 2.923 7.987 6.882 10.475 11.529 2.492 4.651 3.793 9.839 3.793 15.113s-1.301 10.462-3.793 15.113c-2.487 4.646-6.089 8.606-10.475 11.528zM480 443.802v136.198l102.319-68-102.319-68.198zM864 800h-704c-16.974 0-33.253-6.743-45.255-18.745s-18.745-28.281-18.745-45.255v-448c0-16.973 6.743-33.254 18.745-45.257s28.281-18.743 45.255-18.743h704c16.973 0 33.254 6.741 45.257 18.743s18.743 28.284 18.743 45.257v448c0 16.974-6.741 33.253-18.743 45.255s-28.284 18.745-45.257 18.745zM864 288h-704v448h704v-448zM928 128c0-8.486-3.371-16.627-9.374-22.626-5.999-6.003-14.14-9.374-22.626-9.374h-768c-8.487 0-16.626 3.371-22.627 9.374-6.001 5.999-9.373 14.14-9.373 22.626s3.372 16.627 9.373 22.626c6.001 6.003 14.141 9.374 22.627 9.374h768c8.486 0 16.627-3.371 22.626-9.374 6.003-5.999 9.374-14.14 9.374-22.626z" />
<glyph unicode="&#xe92c;" glyph-name="X" d="M822.656 182.622c2.974-2.974 5.333-6.502 6.942-10.385 1.609-3.887 2.436-8.051 2.436-12.254 0-4.207-0.828-8.367-2.436-12.254-1.609-3.883-3.968-7.415-6.942-10.385-2.97-2.974-6.502-5.333-10.385-6.942-3.887-1.609-8.047-2.436-12.254-2.436-4.203 0-8.367 0.828-12.254 2.436-3.883 1.609-7.411 3.968-10.385 6.942l-265.361 265.399-265.359-265.399c-6.004-6.007-14.148-9.378-22.64-9.378s-16.636 3.371-22.64 9.378c-6.004 6.003-9.378 14.148-9.378 22.639s3.373 16.636 9.378 22.639l265.4 265.361-265.4 265.359c-6.004 6.004-9.378 14.148-9.378 22.64s3.373 16.636 9.378 22.64c6.004 6.004 14.148 9.378 22.64 9.378s16.635-3.373 22.64-9.378l265.359-265.4 265.361 265.4c6.003 6.004 14.148 9.378 22.639 9.378s16.636-3.373 22.639-9.378c6.007-6.004 9.378-14.148 9.378-22.64s-3.371-16.635-9.378-22.64l-265.399-265.359 265.399-265.361z" />
<glyph unicode="&#xe92d;" glyph-name="XCircle" d="M512 864c-82.278 0-162.706-24.398-231.117-70.109s-121.731-110.681-153.216-186.695c-31.486-76.013-39.724-159.657-23.673-240.352s55.671-154.82 113.85-213.001c58.179-58.18 132.303-97.801 213-113.852 80.695-16.051 164.339-7.812 240.354 23.676 76.011 31.484 140.983 84.804 186.692 153.216 45.713 68.412 70.11 148.838 70.11 231.117-0.115 110.294-43.981 216.038-121.971 294.028s-183.735 121.856-294.029 121.972zM662.639 342.639c2.974-2.974 5.333-6.502 6.942-10.385 1.609-3.887 2.436-8.051 2.436-12.254s-0.828-8.367-2.436-12.254c-1.609-3.883-3.968-7.411-6.942-10.385s-6.502-5.333-10.385-6.942c-3.887-1.609-8.047-2.436-12.254-2.436-4.203 0-8.367 0.828-12.254 2.436-3.883 1.609-7.411 3.968-10.385 6.942l-105.361 105.399-105.36-105.399c-2.973-2.974-6.503-5.333-10.387-6.942s-8.048-2.436-12.253-2.436c-4.204 0-8.368 0.828-12.253 2.436s-7.414 3.968-10.387 6.942c-2.973 2.974-5.332 6.502-6.941 10.385-1.609 3.887-2.437 8.051-2.437 12.254s0.828 8.367 2.437 12.254c1.609 3.883 3.968 7.411 6.941 10.385l105.4 105.361-105.4 105.36c-6.004 6.005-9.378 14.149-9.378 22.64s3.373 16.635 9.378 22.64c6.004 6.004 14.148 9.378 22.64 9.378s16.636-3.373 22.64-9.378l105.36-105.401 105.361 105.401c2.974 2.973 6.502 5.331 10.385 6.941 3.887 1.609 8.051 2.437 12.254 2.437 4.207 0 8.367-0.828 12.254-2.437 3.883-1.609 7.411-3.968 10.385-6.941s5.333-6.503 6.942-10.388c1.609-3.884 2.436-8.048 2.436-12.253s-0.828-8.368-2.436-12.253c-1.609-3.885-3.968-7.414-6.942-10.388l-105.399-105.36 105.399-105.361z" />
<glyph unicode="&#xe92e;" glyph-name="XLogo" d="M860.015 80.602c-2.756-5.022-6.805-9.207-11.729-12.126-4.928-2.923-10.543-4.467-16.269-4.476h-192c-5.389 0-10.684 1.361-15.407 3.955-4.719 2.594-8.708 6.34-11.593 10.884l-161.963 254.519-235.36-258.88c-5.737-6.161-13.673-9.818-22.086-10.167s-16.626 2.628-22.857 8.29c-6.231 5.662-9.98 13.555-10.432 21.965-0.453 8.405 2.427 16.653 8.015 22.955l247.080 272-250.4 393.279c-3.084 4.838-4.81 10.417-4.998 16.151s1.169 11.414 3.93 16.444c2.76 5.030 6.822 9.225 11.76 12.147s10.571 4.461 16.308 4.458h192c5.386-0.002 10.684-1.363 15.404-3.957s8.708-6.337 11.596-10.883l161.959-254.52 235.362 258.88c5.734 6.163 13.67 9.816 22.084 10.168s16.627-2.627 22.857-8.29c6.234-5.664 9.98-13.554 10.432-21.963s-2.428-16.656-8.013-22.956l-247.083-271.8 250.402-393.519c3.068-4.843 4.774-10.415 4.954-16.145 0.175-5.726-1.19-11.396-3.955-16.414z" />
<glyph unicode="&#xe92f;" glyph-name="Archive" d="M896 768h-768c-16.974 0-33.253-6.743-45.255-18.745s-18.745-28.281-18.745-45.255v-96c0-16.974 6.743-33.253 18.745-45.255s28.281-18.745 45.255-18.745v-352c0-16.973 6.743-33.254 18.745-45.257s28.281-18.743 45.255-18.743h640c16.973 0 33.254 6.741 45.257 18.743s18.743 28.284 18.743 45.257v352c16.973 0 33.254 6.743 45.257 18.745s18.743 28.281 18.743 45.255v96c0 16.974-6.741 33.253-18.743 45.255s-28.284 18.745-45.257 18.745zM832 192h-640v352h640v-352zM896 608h-768v96h768v-96zM384 416c0 8.486 3.372 16.627 9.373 22.626 6.001 6.003 14.141 9.374 22.627 9.374h192c8.486 0 16.627-3.371 22.626-9.374 6.003-5.999 9.374-14.14 9.374-22.626s-3.371-16.627-9.374-22.626c-5.999-6.003-14.14-9.374-22.626-9.374h-192c-8.487 0-16.626 3.371-22.627 9.374-6.001 5.999-9.373 14.14-9.373 22.626z" />
<glyph unicode="&#xe930;" glyph-name="ArrowsClockwise" d="M896 768v-192c0-8.487-3.369-16.626-9.375-22.627-6.001-6.001-14.136-9.373-22.625-9.373h-192c-8.489 0-16.625 3.372-22.625 9.373-6.006 6.001-9.375 14.14-9.375 22.627s3.369 16.626 9.375 22.628c6.001 6.001 14.136 9.372 22.625 9.372h114.76l-58.522 58.52c-59.469 59.744-140.221 93.45-224.518 93.72h-1.8c-83.593 0.196-163.903-32.523-223.56-91.080-6.111-5.705-14.212-8.792-22.57-8.6s-16.309 3.646-22.152 9.626c-5.843 5.979-9.114 14.007-9.114 22.368s3.272 16.388 9.116 22.366c72.301 70.664 169.553 109.965 270.649 109.373 101.094-0.591 197.883-41.028 269.353-112.533l58.358-58.52v114.76c0 8.487 3.369 16.626 9.375 22.628 6.001 6.001 14.136 9.372 22.625 9.372s16.625-3.371 22.625-9.372c6.006-6.002 9.375-14.141 9.375-22.628zM745.641 226.842c-60.247-58.849-141.266-91.576-225.485-91.085-84.216 0.497-164.845 34.171-224.396 93.722l-58.52 58.522h114.76c8.487 0 16.626 3.374 22.627 9.375s9.373 14.136 9.373 22.625c0 8.489-3.372 16.625-9.373 22.625-6.001 6.006-14.14 9.375-22.627 9.375h-192c-8.487 0-16.626-3.369-22.627-9.375-6.001-6.001-9.373-14.136-9.373-22.625v-192c0-8.489 3.372-16.625 9.373-22.625s14.14-9.375 22.627-9.375c8.487 0 16.626 3.374 22.627 9.375s9.373 14.136 9.373 22.625v114.76l58.52-58.522c71.368-71.726 168.296-112.184 269.477-112.476h2.125c100.321-0.261 196.705 39.014 268.278 109.317 5.842 5.98 9.114 14.008 9.119 22.369 0 8.361-3.272 16.389-9.119 22.364-5.842 5.98-13.793 9.436-22.149 9.626-8.361 0.195-16.461-2.893-22.569-8.596h-0.041z" />
<glyph unicode="&#xe931;" glyph-name="check" d="M823.168 712.832l-439.168-439.168-183.168 183.168c-16.683 16.683-43.691 16.683-60.331 0s-16.683-43.691 0-60.331l213.333-213.333c16.683-16.683 43.691-16.683 60.331 0l469.333 469.333c16.683 16.683 16.683 43.691 0 60.331s-43.691 16.683-60.331 0z" />
<glyph unicode="&#xe949;" glyph-name="search" d="M912.99 80.969l-205.517 205.521c58.607 67.401 88.755 154.918 84.092 244.113-4.668 89.195-43.78 173.094-109.094 234.012-65.318 60.918-151.735 94.097-241.037 92.541-89.303-1.555-174.513-37.723-237.669-100.879s-99.323-148.366-100.879-237.668c-1.555-89.301 31.623-175.718 92.541-241.037s144.817-104.431 234.013-109.094c89.19-4.663 176.713 25.485 244.113 84.092l205.517-205.521c4.553-4.237 10.569-6.545 16.785-6.434 6.221 0.107 12.151 2.628 16.55 7.023 4.395 4.399 6.912 10.33 7.023 16.546 0.111 6.221-2.197 12.237-6.438 16.785zM152.032 512.009c0 58.545 17.36 115.773 49.885 164.451s78.754 86.616 132.841 109.019c54.087 22.404 113.601 28.265 171.022 16.844 57.417-11.421 110.161-39.613 151.556-81.009s69.585-94.138 81.007-151.557c11.422-57.42 5.559-116.936-16.845-171.020-22.4-54.089-60.339-100.318-109.018-132.843s-105.907-49.886-164.45-49.886c-78.473 0.098-153.707 31.313-209.197 86.805-55.49 55.488-86.706 130.722-86.801 209.195z" />
<glyph unicode="&#xe97c;" glyph-name="eye" d="M4.523 445.739c-5.803-11.691-6.229-25.728 0-38.144 0 0 16.896-33.664 47.787-78.635 19.243-27.989 44.288-61.099 74.965-94.635 38.144-41.771 85.504-84.779 141.611-119.467 68.053-42.069 149.589-72.192 243.115-72.192s175.061 30.123 243.115 72.192c56.107 34.688 103.467 77.696 141.611 119.467 30.635 33.536 55.723 66.645 74.965 94.635 30.891 44.971 47.787 78.635 47.787 78.635 5.803 11.691 6.229 25.728 0 38.144 0 0-16.896 33.664-47.787 78.635-19.243 27.989-44.288 61.099-74.965 94.635-38.144 41.771-85.504 84.779-141.611 119.467-68.053 42.069-149.589 72.192-243.115 72.192s-175.061-30.123-243.115-72.192c-56.107-34.688-103.467-77.696-141.611-119.467-30.677-33.536-55.723-66.603-74.965-94.635-30.891-44.971-47.787-78.635-47.787-78.635zM91.307 426.667c6.955 11.989 17.365 29.056 31.317 49.408 17.493 25.429 40.107 55.296 67.627 85.376 34.347 37.589 75.733 74.923 123.477 104.448 57.6 35.584 123.776 59.435 198.272 59.435s140.672-23.851 198.229-59.435c47.744-29.525 89.131-66.859 123.477-104.448 27.477-30.080 50.133-59.947 67.627-85.376 13.995-20.352 24.405-37.376 31.317-49.408-6.955-11.989-17.365-29.056-31.317-49.408-17.493-25.429-40.107-55.296-67.627-85.376-34.347-37.589-75.733-74.923-123.477-104.448-57.557-35.584-123.733-59.435-198.229-59.435s-140.672 23.851-198.229 59.435c-47.744 29.525-89.131 66.859-123.477 104.448-27.477 30.080-50.133 59.947-67.627 85.376-13.995 20.352-24.405 37.419-31.36 49.408zM682.667 426.667c0 47.104-19.157 89.856-50.005 120.661s-73.557 50.005-120.661 50.005-89.856-19.157-120.661-50.005-50.005-73.557-50.005-120.661 19.157-89.856 50.005-120.661 73.557-50.005 120.661-50.005 89.856 19.157 120.661 50.005 50.005 73.557 50.005 120.661zM597.333 426.667c0-23.595-9.515-44.843-25.003-60.331s-36.736-25.003-60.331-25.003-44.843 9.515-60.331 25.003-25.003 36.736-25.003 60.331 9.515 44.843 25.003 60.331 36.736 25.003 60.331 25.003 44.843-9.515 60.331-25.003 25.003-36.736 25.003-60.331z" />
<glyph unicode="&#xe97d;" glyph-name="eye-off" d="M432.128 716.203c27.776 6.485 55.296 9.429 79.36 9.131 75.008 0 141.184-23.851 198.741-59.435 47.744-29.525 89.131-66.859 123.477-104.448 27.477-30.080 50.133-59.947 67.627-85.376 13.952-20.267 24.32-37.291 31.275-49.28-23.296-40.661-49.493-77.696-75.861-108.459-15.317-17.877-13.269-44.843 4.608-60.16s44.843-13.269 60.16 4.608c34.901 40.704 68.736 90.112 97.408 143.787 6.315 11.904 6.955 26.368 0.555 39.211 0 0-16.896 33.664-47.787 78.635-19.243 27.989-44.288 61.099-74.965 94.635-38.144 41.771-85.504 84.779-141.611 119.467-68.053 42.027-149.589 72.149-242.603 72.149-31.317 0.384-65.707-3.371-99.84-11.349-22.955-5.376-37.205-28.331-31.829-51.285s28.331-37.205 51.285-31.829zM427.819 450.475l107.989-107.989c-7.765-2.603-15.872-4.011-24.021-4.309-21.888-0.768-43.947 6.784-61.184 22.869s-26.325 37.547-27.093 59.435c-0.341 10.155 1.067 20.309 4.309 30.037zM255.275 623.062l108.928-108.928c-18.517-29.483-27.136-63.317-25.941-96.683 1.536-43.605 19.755-86.741 54.229-118.827s78.763-47.232 122.368-45.696c29.525 1.024 58.837 9.728 84.651 25.941l99.072-99.072c-58.795-34.091-123.52-51.029-187.051-51.797-73.984 0-140.16 23.851-197.717 59.435-47.744 29.525-89.131 66.859-123.477 104.448-27.477 30.080-50.133 59.947-67.627 85.376-13.909 20.267-24.32 37.248-31.232 49.237 44.8 77.739 101.376 144.171 163.883 196.565zM12.501 865.835l182.229-182.229c-73.856-63.104-139.477-143.275-189.653-236.757-6.315-11.904-6.997-26.411-0.555-39.253 0 0 16.896-33.664 47.787-78.635 19.243-27.989 44.288-61.099 74.965-94.635 38.144-41.771 85.504-84.779 141.611-119.467 68.053-42.069 149.589-72.192 243.627-72.192 85.035 1.024 171.477 25.643 248.107 75.051l190.549-190.549c16.683-16.683 43.691-16.683 60.331 0s16.683 43.691 0 60.331l-378.709 378.709c-0.085 0.085-0.213 0.213-0.299 0.299l-179.584 179.627c-0.341 0.299-0.683 0.683-1.024 1.024l-379.051 379.008c-16.683 16.683-43.691 16.683-60.331 0s-16.683-43.691 0-60.331z" />
</font>
</defs>
</svg>
